<svg xmlns="http://www.w3.org/2000/svg" width="512" height="512" style="shape-rendering:geometricPrecision;text-rendering:geometricPrecision;image-rendering:optimizeQuality;fill-rule:evenodd;clip-rule:evenodd"><path fill="#29aeb5" d="M219.5 61.5a40.939 40.939 0 0 1 9 .5c40.813 20.428 57.813 53.429 51 99-4.278 15.893-11.945 29.893-23 42a4.934 4.934 0 0 1-3 .5 4189.275 4189.275 0 0 0-22.5-89 782 782 0 0 0 2 51 889.75 889.75 0 0 0 4.5 39c-.247 2.582-1.58 3.415-4 2.5-38.596-23.755-53.096-57.921-43.5-102.5 4.172-12.67 10.672-24.004 19.5-34 3.379-3.05 6.712-6.05 10-9Z" style="opacity:.931"/><path fill="#29aeb5" d="M129.5 71.5c26.406.593 43.406 13.427 51 38.5-3.806 18.374-14.806 25.374-33 21-19.695-15.597-25.695-35.43-18-59.5Z" style="opacity:.91"/><path fill="#1c838d" d="M352.5 94.5c28.984-1.456 47.484 11.544 55.5 39l1-1c3.535 21.068-2.632 38.568-18.5 52.5-5.245 3.626-10.912 6.126-17 7.5a1009.832 1009.832 0 0 1-29 74.5 307.208 307.208 0 0 1-71 4.5 4034.191 4034.191 0 0 1 48-92.5l-1-1.5a377.167 377.167 0 0 0-4.5 5 6164.412 6164.412 0 0 1-54 89 179.674 179.674 0 0 1-26.5 1 4968.04 4968.04 0 0 1 75.5-111c-5.298-24.074 1.536-43.574 20.5-58.5 6.603-4.177 13.603-7.01 21-8.5Zm-4 19a2.428 2.428 0 0 1 2 .5c-6.653 6.127-11.153 13.627-13.5 22.5l-1-1a122.613 122.613 0 0 1-5 19c-3.835-13.673-1.002-25.673 8.5-36 2.831-2.209 5.831-3.876 9-5Z" style="opacity:.933"/><path fill="#29aeb5" d="M128.5 141.5c28.369-2.251 48.202 9.416 59.5 35 2.155 6.578 2.655 13.245 1.5 20a835.558 835.558 0 0 1-35-20.5c-1.259-.982-2.592-1.315-4-1a442.106 442.106 0 0 0 33.5 29.5c.483.948.649 1.948.5 3-29.477 6.69-51.811-2.81-67-28.5a70.502 70.502 0 0 1-5-23.5c-.153-3.217.514-6.217 2-9 4.789-1.674 9.456-3.34 14-5Z" style="opacity:.888"/><path fill="#29aeb5" d="M232.5 212.5c8.692-.331 17.359.002 26 1a37071.202 37071.202 0 0 1-39 58c-36.523.615-72.19-4.551-107-15.5-6.664-2.486-11.331-6.986-14-13.5 1.618-4.081 4.285-7.248 8-9.5 21.088-9.028 43.088-14.361 66-16a7499.994 7499.994 0 0 0 60-4.5Z" style="opacity:.928"/><path fill="#29aeb5" d="M375.5 224.5c7.567 1.667 15.234 4.167 23 7.5 4.494 2.49 7.494 6.156 9 11-2.342 6.335-6.675 10.669-13 13a223.61 223.61 0 0 1-33 8.5c4.656-13.268 9.323-26.601 14-40Z" style="opacity:.856"/><path fill="#1c838d" d="M83.5 261.5c3.354-.431 6.187.569 8.5 3a298.11 298.11 0 0 0 25.5 8.5c71.998 15.48 144.665 18.813 218 10a989.749 989.749 0 0 0 57-11 454.5 454.5 0 0 0 28-10.5c3.799 2.621 5.965 6.287 6.5 11 1.058 15.582-.775 30.749-5.5 45.5-16.672 48.07-47.839 83.236-93.5 105.5-31.428 13.452-64.262 18.285-98.5 14.5-72.448-12.741-120.948-53.574-145.5-122.5a201.438 201.438 0 0 1-3-16l-1 1a171.225 171.225 0 0 1 .5-32 32.26 32.26 0 0 0 3-7Zm30 49a750.652 750.652 0 0 0 72 87l-1.5 1c-39.464-16.497-62.964-45.83-70.5-88Z" style="opacity:.968"/></svg>