<!-- Generated by IcoMoon.io -->
<svg version="1.1" xmlns="http://www.w3.org/2000/svg" fill='#76737D' width="32" height="32" viewBox="0 0 32 32">
<title>angle-right</title>
<path d="M12.227 9.333c-0.248 0.25-0.388 0.588-0.388 0.94s0.139 0.69 0.388 0.94l4.72 4.787-4.72 4.72c-0.248 0.25-0.388 0.588-0.388 0.94s0.139 0.69 0.388 0.94c0.124 0.125 0.271 0.224 0.434 0.292s0.337 0.103 0.513 0.103c0.176 0 0.35-0.035 0.513-0.103s0.31-0.167 0.434-0.292l5.653-5.653c0.125-0.124 0.224-0.271 0.292-0.434s0.103-0.337 0.103-0.513c0-0.176-0.035-0.35-0.103-0.513s-0.167-0.31-0.292-0.434l-5.653-5.72c-0.124-0.125-0.271-0.224-0.434-0.292s-0.337-0.103-0.513-0.103c-0.176 0-0.35 0.035-0.513 0.103s-0.31 0.167-0.434 0.292z"></path>
</svg>
