<svg width="24" height="24" viewBox="0 0 24 24" fill="none" xmlns="http://www.w3.org/2000/svg">
<mask id="path-1-inside-1_165_748" fill="white">
<path d="M10.8823 3.20516C10.8823 2.53957 10.3428 2 9.67716 2C4.88488 2 0.999973 5.88491 0.999973 10.6772L0.999973 11.8824L10.6886 11.8824C10.7956 11.8824 10.8823 11.7956 10.8823 11.6886L10.8823 3.20516Z"/>
</mask>
<path d="M10.8823 3.20516C10.8823 2.53957 10.3428 2 9.67716 2C4.88488 2 0.999973 5.88491 0.999973 10.6772L0.999973 11.8824L10.6886 11.8824C10.7956 11.8824 10.8823 11.7956 10.8823 11.6886L10.8823 3.20516Z" stroke="white" stroke-width="2.47059" mask="url(#path-1-inside-1_165_748)"/>
<mask id="path-2-inside-2_165_748" fill="white">
<path d="M21.9726 11.8828C21.9877 11.8828 22 11.8706 22 11.8554L22 10.6776C22 5.88537 18.1151 2.00046 13.3228 2.00046C12.6572 2.00046 12.1176 2.54003 12.1176 3.20563L12.1176 11.689C12.1176 11.7961 12.2044 11.8828 12.3114 11.8828L21.9726 11.8828Z"/>
</mask>
<path d="M21.9726 11.8828C21.9877 11.8828 22 11.8706 22 11.8554L22 10.6776C22 5.88537 18.1151 2.00046 13.3228 2.00046C12.6572 2.00046 12.1176 2.54003 12.1176 3.20563L12.1176 11.689C12.1176 11.7961 12.2044 11.8828 12.3114 11.8828L21.9726 11.8828Z" stroke="white" stroke-width="2.47059" mask="url(#path-2-inside-2_165_748)"/>
<mask id="path-3-inside-3_165_748" fill="white">
<path d="M2.20516 13.1172C1.53957 13.1172 1 13.6568 1 14.3224C1 19.1146 4.88491 22.9995 9.67719 22.9995L10.8824 22.9995L10.8824 13.311C10.8824 13.2039 10.7956 13.1172 10.6886 13.1172L2.20516 13.1172Z"/>
</mask>
<path d="M2.20516 13.1172C1.53957 13.1172 1 13.6568 1 14.3224C1 19.1146 4.88491 22.9995 9.67719 22.9995L10.8824 22.9995L10.8824 13.311C10.8824 13.2039 10.7956 13.1172 10.6886 13.1172L2.20516 13.1172Z" stroke="white" stroke-width="2.47059" mask="url(#path-3-inside-3_165_748)"/>
<rect x="21" y="22" width="7.88235" height="7.88235" rx="3.94118" transform="rotate(180 21 22)" stroke="#0D727E" stroke-width="2"/>
</svg>
