<svg width="24" height="24" viewBox="0 0 24 24" fill="none" xmlns="http://www.w3.org/2000/svg">
<mask id="path-1-inside-1_63_71" fill="white">
<path d="M10.8823 3.20516C10.8823 2.53957 10.3428 2 9.67716 2C4.88488 2 0.999973 5.88491 0.999973 10.6772L0.999973 11.8824L10.6886 11.8824C10.7956 11.8824 10.8823 11.7956 10.8823 11.6886L10.8823 3.20516Z"/>
</mask>
<path d="M10.8823 3.20516C10.8823 2.53957 10.3428 2 9.67716 2C4.88488 2 0.999973 5.88491 0.999973 10.6772L0.999973 11.8824L10.6886 11.8824C10.7956 11.8824 10.8823 11.7956 10.8823 11.6886L10.8823 3.20516Z" stroke="#76737D" stroke-width="2.47059" mask="url(#path-1-inside-1_63_71)"/>
<mask id="path-2-inside-2_63_71" fill="white">
<path d="M21.9726 11.8823C21.9877 11.8823 22 11.8701 22 11.8549L22 10.6772C22 5.88488 18.1151 1.99997 13.3228 1.99997C12.6572 1.99997 12.1176 2.53954 12.1176 3.20514L12.1176 11.6886C12.1176 11.7956 12.2044 11.8823 12.3114 11.8823L21.9726 11.8823Z"/>
</mask>
<path d="M21.9726 11.8823C21.9877 11.8823 22 11.8701 22 11.8549L22 10.6772C22 5.88488 18.1151 1.99997 13.3228 1.99997C12.6572 1.99997 12.1176 2.53954 12.1176 3.20514L12.1176 11.6886C12.1176 11.7956 12.2044 11.8823 12.3114 11.8823L21.9726 11.8823Z" stroke="#76737D" stroke-width="2.47059" mask="url(#path-2-inside-2_63_71)"/>
<mask id="path-3-inside-3_63_71" fill="white">
<path d="M2.20516 13.1177C1.53957 13.1177 1 13.6572 1 14.3228C1 19.1151 4.88491 23 9.67719 23L10.8824 23L10.8824 13.3114C10.8824 13.2044 10.7956 13.1177 10.6886 13.1177L2.20516 13.1177Z"/>
</mask>
<path d="M2.20516 13.1177C1.53957 13.1177 1 13.6572 1 14.3228C1 19.1151 4.88491 23 9.67719 23L10.8824 23L10.8824 13.3114C10.8824 13.2044 10.7956 13.1177 10.6886 13.1177L2.20516 13.1177Z" stroke="#76737D" stroke-width="2.47059" mask="url(#path-3-inside-3_63_71)"/>
<rect x="21" y="22" width="7.88235" height="7.88235" rx="3.94118" transform="rotate(180 21 22)" stroke="#77C9CC" stroke-width="2"/>
</svg>
