<svg aria-hidden="true" style="position: absolute; width: 0; height: 0; overflow: hidden;" version="1.1" xmlns="http://www.w3.org/2000/svg" xmlns:xlink="http://www.w3.org/1999/xlink">
<defs>
<symbol id="icon-tablets" viewBox="0 0 32 32">
<path d="M27.386 4.613c-0.933-0.931-2.121-1.564-3.414-1.82s-2.632-0.123-3.849 0.382-2.257 1.36-2.989 2.456c-0.732 1.096-1.122 2.384-1.122 3.702s0.391 2.606 1.122 3.702c0.732 1.096 1.772 1.95 2.989 2.456s2.557 0.638 3.849 0.382c1.293-0.256 2.481-0.889 3.414-1.82 0.621-0.619 1.113-1.355 1.449-2.165s0.509-1.678 0.509-2.555c0-0.877-0.173-1.745-0.509-2.555s-0.829-1.546-1.449-2.165zM19.84 6.507c0.749-0.75 1.766-1.172 2.827-1.173 0.591 0.005 1.174 0.142 1.707 0.4l-5.333 5.333c-0.356-0.749-0.47-1.591-0.327-2.408s0.537-1.569 1.127-2.152zM25.493 12.16c-0.584 0.58-1.333 0.965-2.144 1.103s-1.646 0.023-2.389-0.33l5.333-5.333c0.356 0.749 0.47 1.591 0.327 2.407s-0.537 1.569-1.127 2.152zM10.666 13.333c-1.041-0.004-2.073 0.197-3.037 0.593s-1.839 0.978-2.577 1.713c-1.129 1.114-1.901 2.539-2.218 4.093s-0.166 3.167 0.436 4.635c0.602 1.468 1.626 2.723 2.943 3.607s2.867 1.357 4.453 1.358c2.056-0.001 4.033-0.794 5.52-2.213l0.16-0.107c0.028-0.051 0.059-0.1 0.093-0.147 1.084-1.132 1.812-2.557 2.093-4.099s0.103-3.132-0.512-4.574-1.64-2.671-2.947-3.535c-1.307-0.864-2.84-1.325-4.407-1.326zM6.893 25.107c-0.825-0.834-1.352-1.918-1.499-3.082s0.094-2.345 0.686-3.358l7.253 7.253c-1.013 0.592-2.194 0.833-3.358 0.686s-2.248-0.674-3.082-1.499zM15.253 24l-7.253-7.253c0.808-0.479 1.728-0.737 2.667-0.747 0.933 0.006 1.849 0.256 2.655 0.727s1.475 1.144 1.939 1.954c0.464 0.81 0.708 1.727 0.707 2.661s-0.248 1.85-0.715 2.659z"></path>
</symbol>
<symbol id="icon-stethoscope" viewBox="0 0 32 32">
<path d="M25.333 10.667c-0.943-0.002-1.856 0.329-2.577 0.936s-1.205 1.449-1.365 2.378c-0.16 0.929 0.015 1.885 0.492 2.697s1.227 1.43 2.117 1.743v2.246c0 1.591-0.632 3.117-1.757 4.243s-2.651 1.757-4.243 1.757c-1.591 0-3.117-0.632-4.243-1.757s-1.757-2.651-1.757-4.243v-0.787c1.862-0.316 3.553-1.28 4.773-2.722s1.891-3.269 1.894-5.157v-8c0-0.354-0.141-0.693-0.391-0.943s-0.589-0.391-0.943-0.391h-2.667c-0.354 0-0.693 0.14-0.943 0.391s-0.391 0.589-0.391 0.943c0 0.354 0.141 0.693 0.391 0.943s0.589 0.391 0.943 0.391h1.333v6.667c0 1.415-0.562 2.771-1.562 3.771s-2.357 1.562-3.771 1.562-2.771-0.562-3.771-1.562c-1-1-1.562-2.357-1.562-3.771v-6.667h1.333c0.354 0 0.693-0.14 0.943-0.391s0.391-0.589 0.391-0.943c0-0.354-0.14-0.693-0.391-0.943s-0.589-0.391-0.943-0.391h-2.667c-0.354 0-0.693 0.14-0.943 0.391s-0.391 0.589-0.391 0.943v8c0.003 1.889 0.674 3.716 1.894 5.157s2.91 2.406 4.773 2.722v0.787c0 2.299 0.913 4.503 2.538 6.128s3.83 2.538 6.128 2.538c2.299 0 4.503-0.913 6.128-2.538s2.538-3.83 2.538-6.128v-2.246c0.889-0.313 1.639-0.93 2.117-1.743s0.652-1.768 0.492-2.697c-0.16-0.929-0.643-1.772-1.365-2.378s-1.635-0.938-2.577-0.936zM25.333 16c-0.264 0-0.521-0.078-0.741-0.225s-0.39-0.355-0.491-0.598-0.127-0.512-0.076-0.77c0.051-0.259 0.178-0.496 0.365-0.683s0.424-0.313 0.683-0.365c0.259-0.051 0.527-0.025 0.77 0.076s0.452 0.272 0.598 0.491c0.147 0.219 0.225 0.477 0.225 0.741-0 0.353-0.141 0.692-0.391 0.942s-0.589 0.391-0.942 0.391z"></path>
</symbol>
<symbol id="icon-search" viewBox="0 0 32 32">
<path stroke-linejoin="round" stroke-linecap="round" stroke-miterlimit="4" stroke-width="3.2" d="M13.6 24c5.744 0 10.4-4.656 10.4-10.4s-4.656-10.4-10.4-10.4c-5.744 0-10.4 4.656-10.4 10.4s4.656 10.4 10.4 10.4z"></path>
<path stroke-linejoin="round" stroke-linecap="round" stroke-miterlimit="4" stroke-width="3.2" d="M28.8 28.8l-8-8"></path>
</symbol>
<symbol id="icon-sanitizer" viewBox="0 0 32 32">
<path d="M17.333 16c-0.791 0-1.564 0.235-2.222 0.674s-1.17 1.064-1.473 1.795c-0.303 0.731-0.382 1.535-0.228 2.311s0.535 1.489 1.095 2.048c0.559 0.559 1.272 0.94 2.048 1.095s1.58 0.075 2.311-0.228c0.731-0.303 1.356-0.815 1.795-1.473s0.674-1.431 0.674-2.222c-0.001-1.061-0.423-2.077-1.173-2.827s-1.767-1.172-2.827-1.173zM17.333 21.333c-0.264 0-0.521-0.078-0.741-0.225s-0.39-0.355-0.491-0.598-0.127-0.512-0.076-0.77c0.051-0.259 0.178-0.496 0.365-0.683s0.424-0.313 0.683-0.365c0.259-0.051 0.527-0.025 0.77 0.076s0.452 0.272 0.598 0.491c0.147 0.219 0.225 0.477 0.225 0.741-0 0.353-0.141 0.692-0.391 0.942s-0.589 0.391-0.942 0.391zM25.067 10.133l-3.734-2.8v-3.333h1.333c0.354 0 0.693-0.14 0.943-0.391s0.39-0.589 0.39-0.943-0.14-0.693-0.39-0.943c-0.25-0.25-0.589-0.391-0.943-0.391h-11.124c-0.876-0.002-1.743 0.169-2.552 0.504s-1.544 0.827-2.161 1.448l-1.105 1.105c-0.126 0.123-0.226 0.27-0.294 0.433s-0.104 0.336-0.105 0.513c-0.001 0.176 0.033 0.351 0.1 0.513s0.166 0.311 0.29 0.435c0.125 0.125 0.272 0.223 0.435 0.29s0.337 0.101 0.513 0.1c0.176-0.001 0.35-0.036 0.513-0.105s0.309-0.168 0.433-0.294l1.105-1.105c0.752-0.747 1.768-1.168 2.828-1.171h1.791v3.333l-3.734 2.8c-0.495 0.374-0.898 0.857-1.175 1.412s-0.423 1.167-0.424 1.788v16c0 0.354 0.14 0.693 0.391 0.943s0.589 0.391 0.943 0.391h16c0.354 0 0.693-0.14 0.943-0.391s0.39-0.589 0.39-0.943v-16c-0.001-0.621-0.147-1.233-0.424-1.788s-0.68-1.039-1.175-1.412zM16 4h2.667v2.667h-2.667v-2.667zM24 28h-13.333v-14.667c0-0.207 0.049-0.411 0.141-0.596s0.227-0.346 0.392-0.471l3.911-2.933h4.444l3.911 2.933c0.165 0.124 0.3 0.286 0.392 0.471s0.141 0.389 0.141 0.596v14.667z"></path>
</symbol>
<symbol id="icon-heart" viewBox="0 0 32 32">
<path d="M26.88 6.667c-1.413-1.417-3.287-2.282-5.282-2.438s-3.981 0.406-5.598 1.585c-1.696-1.262-3.808-1.834-5.909-1.601s-4.037 1.253-5.416 2.855c-1.379 1.602-2.1 3.668-2.018 5.781s0.963 4.116 2.463 5.605l8.28 8.293c0.693 0.682 1.627 1.065 2.6 1.065s1.907-0.382 2.6-1.065l8.28-8.293c1.557-1.566 2.431-3.685 2.431-5.893s-0.874-4.327-2.431-5.893zM25 16.613l-8.28 8.28c-0.094 0.095-0.206 0.171-0.33 0.222s-0.256 0.078-0.39 0.078c-0.134 0-0.266-0.027-0.39-0.078s-0.236-0.127-0.33-0.222l-8.28-8.32c-1.046-1.069-1.631-2.505-1.631-4s0.586-2.931 1.631-4c1.066-1.052 2.503-1.642 4-1.642s2.934 0.59 4 1.642c0.124 0.125 0.271 0.224 0.434 0.292s0.337 0.103 0.513 0.103 0.35-0.035 0.513-0.103c0.163-0.068 0.31-0.167 0.434-0.292 1.066-1.052 2.503-1.642 4-1.642s2.935 0.59 4 1.642c1.060 1.055 1.665 2.483 1.685 3.978s-0.547 2.939-1.578 4.022v0.040z"></path>
</symbol>
<symbol id="icon-check" viewBox="0 0 32 32">
<path d="M24.947 9.613c-0.124-0.125-0.271-0.224-0.434-0.292s-0.337-0.103-0.513-0.103-0.35 0.035-0.513 0.103c-0.163 0.068-0.31 0.167-0.434 0.292l-9.933 9.947-4.173-4.187c-0.129-0.124-0.281-0.222-0.447-0.288s-0.344-0.098-0.523-0.095c-0.179 0.003-0.355 0.041-0.52 0.113s-0.313 0.174-0.437 0.303c-0.124 0.129-0.222 0.281-0.288 0.447s-0.098 0.344-0.095 0.523 0.041 0.355 0.113 0.52c0.071 0.164 0.174 0.312 0.303 0.437l5.12 5.12c0.124 0.125 0.271 0.224 0.434 0.292s0.337 0.103 0.513 0.103 0.35-0.035 0.513-0.103c0.162-0.068 0.31-0.167 0.434-0.292l10.88-10.88c0.135-0.125 0.243-0.276 0.317-0.445s0.112-0.351 0.112-0.535-0.038-0.366-0.112-0.535c-0.074-0.169-0.182-0.32-0.317-0.445z"></path>
</symbol>
<symbol id="icon-capsule" viewBox="0 0 32 32">
<path d="M26 6c-1.28-1.28-3.016-1.999-4.827-1.999s-3.547 0.719-4.827 1.999l-10.347 10.347c-0.649 0.63-1.166 1.384-1.522 2.216s-0.542 1.727-0.548 2.632c-0.007 0.905 0.167 1.802 0.51 2.639s0.849 1.598 1.489 2.238c0.64 0.64 1.401 1.146 2.238 1.489s1.734 0.517 2.639 0.51c0.905-0.007 1.799-0.193 2.631-0.548s1.585-0.873 2.216-1.522l10.347-10.347c1.28-1.28 1.999-3.016 1.999-4.827s-0.719-3.546-1.999-4.827zM13.76 24.12c-0.795 0.751-1.847 1.169-2.94 1.169s-2.145-0.418-2.94-1.169c-0.776-0.782-1.211-1.839-1.211-2.94s0.435-2.158 1.211-2.94l4.24-4.24 5.88 5.88-4.24 4.24zM24.12 13.76l-4.24 4.24-5.88-5.88 4.24-4.24c0.788-0.738 1.832-1.141 2.912-1.124s2.11 0.454 2.874 1.218c0.764 0.764 1.2 1.794 1.218 2.874s-0.385 2.124-1.123 2.912z"></path>
</symbol>
<symbol id="icon-bag" viewBox="0 0 32 32">
<path d="M31.951 25.957l-3.427-21.119c-0.305-1.876-1.936-3.238-3.877-3.238h-17.295c-1.942 0-3.572 1.362-3.877 3.238l-3.427 21.119c-0.18 1.112 0.145 2.24 0.892 3.096s1.835 1.347 2.985 1.347h24.148c1.15 0 2.238-0.491 2.985-1.347s1.072-1.984 0.892-3.096zM28.704 27.086c-0.093 0.106-0.298 0.284-0.63 0.284h-24.148c-0.333 0-0.538-0.178-0.631-0.284s-0.24-0.332-0.188-0.653l3.427-21.119c0.064-0.396 0.409-0.684 0.819-0.684h17.295c0.41 0 0.754 0.287 0.819 0.684l3.427 21.118c0.052 0.322-0.096 0.548-0.189 0.654z"></path>
<path d="M20.983 6.4c-0.783 0-1.417 0.691-1.417 1.544v4.285c0 2.142-1.6 3.884-3.566 3.884s-3.566-1.742-3.566-3.884v-4.285c0-0.853-0.634-1.544-1.417-1.544s-1.417 0.691-1.417 1.544v4.285c0 3.844 2.871 6.971 6.4 6.971s6.4-3.127 6.4-6.971v-4.285c0-0.853-0.634-1.544-1.417-1.544z"></path>
</symbol>
<symbol id="icon-baby-carriage" viewBox="0 0 32 32">
<path d="M25.333 21.333c-0.791 0-1.565 0.235-2.222 0.674s-1.171 1.064-1.473 1.795c-0.303 0.731-0.382 1.535-0.228 2.311s0.535 1.489 1.095 2.048c0.559 0.559 1.272 0.94 2.048 1.095s1.58 0.075 2.311-0.228c0.731-0.303 1.356-0.815 1.795-1.473s0.674-1.431 0.674-2.222c0-1.061-0.421-2.078-1.172-2.828s-1.768-1.172-2.828-1.172zM25.333 26.667c-0.264 0-0.521-0.078-0.741-0.225s-0.39-0.355-0.491-0.598-0.127-0.512-0.076-0.77c0.051-0.259 0.178-0.496 0.365-0.683s0.424-0.313 0.683-0.365 0.527-0.025 0.77 0.076c0.244 0.101 0.452 0.272 0.598 0.491s0.225 0.477 0.225 0.741c0 0.354-0.141 0.693-0.391 0.943s-0.589 0.391-0.943 0.391zM12 21.333c-0.791 0-1.564 0.235-2.222 0.674s-1.171 1.064-1.473 1.795c-0.303 0.731-0.382 1.535-0.228 2.311s0.535 1.489 1.095 2.048c0.559 0.559 1.272 0.94 2.048 1.095s1.58 0.075 2.311-0.228c0.731-0.303 1.356-0.815 1.795-1.473s0.674-1.431 0.674-2.222c0-1.061-0.421-2.078-1.172-2.828s-1.768-1.172-2.828-1.172zM12 26.667c-0.264 0-0.521-0.078-0.741-0.225s-0.39-0.355-0.491-0.598c-0.101-0.244-0.127-0.512-0.076-0.77s0.178-0.496 0.365-0.683c0.186-0.187 0.424-0.313 0.683-0.365s0.527-0.025 0.77 0.076c0.244 0.101 0.452 0.272 0.598 0.491s0.225 0.477 0.225 0.741c0 0.354-0.14 0.693-0.391 0.943s-0.589 0.391-0.943 0.391zM29.333 11.333c-0.003-2.297-0.918-4.5-2.542-6.124s-3.827-2.539-6.124-2.542h-0.667c-0.354 0-0.693 0.14-0.943 0.391s-0.391 0.589-0.391 0.943v6.667h-8.64l-1.667-4.467c-0.095-0.255-0.267-0.475-0.491-0.63s-0.49-0.238-0.763-0.237h-3.107c-0.354 0-0.693 0.14-0.943 0.391s-0.391 0.589-0.391 0.943c0 0.354 0.14 0.693 0.391 0.943s0.589 0.391 0.943 0.391h2.187l1.667 4.493 0.68 1.827v0.12c0.621 1.649 1.735 3.068 3.19 4.063s3.181 1.517 4.943 1.497h4c1.139 0.002 2.266-0.221 3.319-0.656s2.008-1.073 2.813-1.878c0.805-0.805 1.443-1.761 1.878-2.813s0.658-2.18 0.656-3.319zM24.907 15.573c-0.555 0.559-1.216 1.003-1.944 1.305s-1.508 0.457-2.296 0.455h-4c-1.192 0.004-2.357-0.35-3.346-1.016s-1.755-1.612-2.201-2.718c-0.006-0.026-0.006-0.054 0-0.080l-0.107-0.187h15.307c-0.291 0.846-0.775 1.613-1.413 2.24zM21.333 10.667v-5.333c1.366 0.142 2.641 0.75 3.612 1.721s1.579 2.246 1.721 3.612h-5.333z"></path>
</symbol>
<symbol id="icon-angle-right" viewBox="0 0 32 32">
<path d="M12.227 9.333c-0.248 0.25-0.388 0.588-0.388 0.94s0.139 0.69 0.388 0.94l4.72 4.787-4.72 4.72c-0.248 0.25-0.388 0.588-0.388 0.94s0.139 0.69 0.388 0.94c0.124 0.125 0.271 0.224 0.434 0.292s0.337 0.103 0.513 0.103c0.176 0 0.35-0.035 0.513-0.103s0.31-0.167 0.434-0.292l5.653-5.653c0.125-0.124 0.224-0.271 0.292-0.434s0.103-0.337 0.103-0.513c0-0.176-0.035-0.35-0.103-0.513s-0.167-0.31-0.292-0.434l-5.653-5.72c-0.124-0.125-0.271-0.224-0.434-0.292s-0.337-0.103-0.513-0.103c-0.176 0-0.35 0.035-0.513 0.103s-0.31 0.167-0.434 0.292z"></path>
</symbol>
<symbol id="icon-angle-left" viewBox="0 0 32 32">
<path d="M19.773 22.667c0.248-0.25 0.388-0.588 0.388-0.94s-0.139-0.69-0.388-0.94l-4.72-4.787 4.72-4.72c0.248-0.25 0.388-0.588 0.388-0.94s-0.139-0.69-0.388-0.94c-0.124-0.125-0.272-0.224-0.434-0.292s-0.337-0.103-0.513-0.103-0.35 0.035-0.513 0.103c-0.162 0.068-0.31 0.167-0.434 0.292l-5.653 5.653c-0.125 0.124-0.224 0.271-0.292 0.434s-0.103 0.337-0.103 0.513c0 0.176 0.035 0.35 0.103 0.513s0.167 0.31 0.292 0.434l5.653 5.72c0.124 0.125 0.272 0.224 0.434 0.292s0.337 0.103 0.513 0.103 0.35-0.035 0.513-0.103c0.162-0.068 0.31-0.167 0.434-0.292z"></path>
</symbol>
<symbol id="icon-angle-down" viewBox="0 0 32 32">
<path d="M22.667 12.227c-0.25-0.248-0.588-0.388-0.94-0.388s-0.69 0.139-0.94 0.388l-4.787 4.72-4.72-4.72c-0.25-0.248-0.588-0.388-0.94-0.388s-0.69 0.139-0.94 0.388c-0.125 0.124-0.224 0.271-0.292 0.434s-0.103 0.337-0.103 0.513c0 0.176 0.035 0.35 0.103 0.513s0.167 0.31 0.292 0.434l5.653 5.653c0.124 0.125 0.271 0.224 0.434 0.292s0.337 0.103 0.513 0.103c0.176 0 0.35-0.035 0.513-0.103s0.31-0.167 0.434-0.292l5.72-5.653c0.125-0.124 0.224-0.271 0.292-0.434s0.103-0.337 0.103-0.513c0-0.176-0.035-0.35-0.103-0.513s-0.167-0.31-0.292-0.434z"></path>
</symbol>
<symbol id="icon-account" viewBox="0 0 32 32">
<path d="M21.347 17.021c1.419-1.11 2.454-2.632 2.963-4.355s0.464-3.56-0.127-5.257c-0.591-1.696-1.698-3.168-3.169-4.209s-3.231-1.601-5.036-1.601c-1.805 0-3.566 0.56-5.036 1.601s-2.578 2.513-3.169 4.209c-0.591 1.697-0.635 3.534-0.127 5.257s1.544 3.245 2.963 4.355c-2.431 0.969-4.552 2.575-6.137 4.648s-2.575 4.536-2.864 7.124c-0.021 0.189-0.004 0.38 0.049 0.563s0.142 0.353 0.262 0.501c0.242 0.3 0.593 0.491 0.977 0.533s0.769-0.069 1.070-0.31 0.494-0.59 0.536-0.971c0.318-2.813 1.667-5.412 3.789-7.298s4.869-2.93 7.716-2.93c2.847 0 5.593 1.043 7.716 2.93s3.471 4.485 3.789 7.298c0.039 0.354 0.209 0.68 0.476 0.917s0.613 0.366 0.971 0.364h0.159c0.379-0.044 0.726-0.234 0.965-0.531s0.35-0.675 0.309-1.052c-0.29-2.596-1.285-5.064-2.878-7.141s-3.725-3.682-6.166-4.646zM15.979 16c-1.145 0-2.264-0.338-3.216-0.97s-1.694-1.532-2.132-2.584c-0.438-1.052-0.553-2.209-0.329-3.326s0.775-2.142 1.584-2.948c0.81-0.805 1.841-1.353 2.964-1.575s2.287-0.108 3.344 0.328c1.058 0.436 1.962 1.174 2.598 2.12s0.976 2.060 0.976 3.198c0 1.527-0.61 2.991-1.696 4.071s-2.558 1.686-4.093 1.686z"></path>
</symbol>
<symbol id="icon-search1" viewBox="0 0 32 32">
<path d="M31.008 27.231l-7.58-6.447c-0.784-0.705-1.622-1.029-2.299-0.998 1.789-2.096 2.87-4.815 2.87-7.787 0-6.627-5.373-12-12-12s-12 5.373-12 12 5.373 12 12 12c2.972 0 5.691-1.081 7.787-2.87-0.031 0.677 0.293 1.515 0.998 2.299l6.447 7.58c1.104 1.226 2.907 1.33 4.007 0.23s0.997-2.903-0.23-4.007zM12 20c-4.418 0-8-3.582-8-8s3.582-8 8-8 8 3.582 8 8-3.582 8-8 8z"></path>
</symbol>
</defs>
</svg>
