<svg aria-hidden="true" style="position: absolute; width: 0; height: 0; overflow: hidden;" version="1.1" xmlns="http://www.w3.org/2000/svg" xmlns:xlink="http://www.w3.org/1999/xlink">
<defs>
<symbol id="icon-tablets" viewBox="0 0 32 32">
<path d="M27.386 4.613c-0.933-0.931-2.121-1.564-3.414-1.82s-2.632-0.123-3.849 0.382-2.257 1.36-2.989 2.456c-0.732 1.096-1.122 2.384-1.122 3.702s0.391 2.606 1.122 3.702c0.732 1.096 1.772 1.95 2.989 2.456s2.557 0.638 3.849 0.382c1.293-0.256 2.481-0.889 3.414-1.82 0.621-0.619 1.113-1.355 1.449-2.165s0.509-1.678 0.509-2.555c0-0.877-0.173-1.745-0.509-2.555s-0.829-1.546-1.449-2.165zM19.84 6.507c0.749-0.75 1.766-1.172 2.827-1.173 0.591 0.005 1.174 0.142 1.707 0.4l-5.333 5.333c-0.356-0.749-0.47-1.591-0.327-2.408s0.537-1.569 1.127-2.152zM25.493 12.16c-0.584 0.58-1.333 0.965-2.144 1.103s-1.646 0.023-2.389-0.33l5.333-5.333c0.356 0.749 0.47 1.591 0.327 2.407s-0.537 1.569-1.127 2.152zM10.666 13.333c-1.041-0.004-2.073 0.197-3.037 0.593s-1.839 0.978-2.577 1.713c-1.129 1.114-1.901 2.539-2.218 4.093s-0.166 3.167 0.436 4.635c0.602 1.468 1.626 2.723 2.943 3.607s2.867 1.357 4.453 1.358c2.056-0.001 4.033-0.794 5.52-2.213l0.16-0.107c0.028-0.051 0.059-0.1 0.093-0.147 1.084-1.132 1.812-2.557 2.093-4.099s0.103-3.132-0.512-4.574-1.64-2.671-2.947-3.535c-1.307-0.864-2.84-1.325-4.407-1.326zM6.893 25.107c-0.825-0.834-1.352-1.918-1.499-3.082s0.094-2.345 0.686-3.358l7.253 7.253c-1.013 0.592-2.194 0.833-3.358 0.686s-2.248-0.674-3.082-1.499zM15.253 24l-7.253-7.253c0.808-0.479 1.728-0.737 2.667-0.747 0.933 0.006 1.849 0.256 2.655 0.727s1.475 1.144 1.939 1.954c0.464 0.81 0.708 1.727 0.707 2.661s-0.248 1.85-0.715 2.659z"></path>
</symbol>
<symbol id="icon-category-icon" viewBox="0 0 32 32">
<path fill="none" stroke="#76737d" style="stroke: var(--color1, #76737d)" stroke-linejoin="miter" stroke-linecap="butt" stroke-miterlimit="4" stroke-width="2.6667" d="M14.51 4.274c0-0.887-0.719-1.607-1.607-1.607-6.39 0-11.57 5.18-11.57 11.57v1.607h12.918c0.143 0 0.258-0.116 0.258-0.258v-11.311z"></path>
<path fill="none" stroke="#76737d" style="stroke: var(--color1, #76737d)" stroke-linejoin="miter" stroke-linecap="butt" stroke-miterlimit="4" stroke-width="2.6667" d="M29.297 15.843c0.020 0 0.037-0.016 0.037-0.037v-1.57c0-6.39-5.18-11.57-11.57-11.57-0.887 0-1.607 0.719-1.607 1.607v11.311c0 0.143 0.116 0.258 0.258 0.258h12.882z"></path>
<path fill="none" stroke="#76737d" style="stroke: var(--color1, #76737d)" stroke-linejoin="miter" stroke-linecap="butt" stroke-miterlimit="4" stroke-width="2.6667" d="M2.94 17.49c-0.887 0-1.607 0.719-1.607 1.607 0 6.39 5.18 11.57 11.57 11.57h1.607v-12.918c0-0.143-0.116-0.258-0.258-0.258h-11.311z"></path>
<path fill="none" stroke="#77c9cc" style="stroke: var(--color2, #77c9cc)" stroke-linejoin="miter" stroke-linecap="butt" stroke-miterlimit="4" stroke-width="2.6667" d="M22.745 29.333v0c-2.902 0-5.255-2.353-5.255-5.255v0c0-2.902 2.353-5.255 5.255-5.255v0c2.902 0 5.255 2.353 5.255 5.255v0c0 2.902-2.353 5.255-5.255 5.255z"></path>
</symbol>
<symbol id="icon-stethoscope" viewBox="0 0 32 32">
<path d="M25.333 10.667c-0.943-0.002-1.856 0.329-2.577 0.936s-1.205 1.449-1.365 2.378c-0.16 0.929 0.015 1.885 0.492 2.697s1.227 1.43 2.117 1.743v2.246c0 1.591-0.632 3.117-1.757 4.243s-2.651 1.757-4.243 1.757c-1.591 0-3.117-0.632-4.243-1.757s-1.757-2.651-1.757-4.243v-0.787c1.862-0.316 3.553-1.28 4.773-2.722s1.891-3.269 1.894-5.157v-8c0-0.354-0.141-0.693-0.391-0.943s-0.589-0.391-0.943-0.391h-2.667c-0.354 0-0.693 0.14-0.943 0.391s-0.391 0.589-0.391 0.943c0 0.354 0.141 0.693 0.391 0.943s0.589 0.391 0.943 0.391h1.333v6.667c0 1.415-0.562 2.771-1.562 3.771s-2.357 1.562-3.771 1.562-2.771-0.562-3.771-1.562c-1-1-1.562-2.357-1.562-3.771v-6.667h1.333c0.354 0 0.693-0.14 0.943-0.391s0.391-0.589 0.391-0.943c0-0.354-0.14-0.693-0.391-0.943s-0.589-0.391-0.943-0.391h-2.667c-0.354 0-0.693 0.14-0.943 0.391s-0.391 0.589-0.391 0.943v8c0.003 1.889 0.674 3.716 1.894 5.157s2.91 2.406 4.773 2.722v0.787c0 2.299 0.913 4.503 2.538 6.128s3.83 2.538 6.128 2.538c2.299 0 4.503-0.913 6.128-2.538s2.538-3.83 2.538-6.128v-2.246c0.889-0.313 1.639-0.93 2.117-1.743s0.652-1.768 0.492-2.697c-0.16-0.929-0.643-1.772-1.365-2.378s-1.635-0.938-2.577-0.936zM25.333 16c-0.264 0-0.521-0.078-0.741-0.225s-0.39-0.355-0.491-0.598-0.127-0.512-0.076-0.77c0.051-0.259 0.178-0.496 0.365-0.683s0.424-0.313 0.683-0.365c0.259-0.051 0.527-0.025 0.77 0.076s0.452 0.272 0.598 0.491c0.147 0.219 0.225 0.477 0.225 0.741-0 0.353-0.141 0.692-0.391 0.942s-0.589 0.391-0.942 0.391z"></path>
</symbol>
<symbol id="icon-cross" viewBox="0 0 32 32">
<path d="M17.88 16l5.733-5.72c0.251-0.251 0.392-0.592 0.392-0.947s-0.141-0.696-0.392-0.947c-0.251-0.251-0.592-0.392-0.947-0.392s-0.696 0.141-0.947 0.392l-5.72 5.733-5.72-5.733c-0.251-0.251-0.592-0.392-0.947-0.392s-0.696 0.141-0.947 0.392c-0.251 0.251-0.392 0.592-0.392 0.947s0.141 0.696 0.392 0.947l5.733 5.72-5.733 5.72c-0.125 0.124-0.224 0.271-0.292 0.434s-0.103 0.337-0.103 0.513c0 0.176 0.035 0.35 0.103 0.513s0.167 0.31 0.292 0.434c0.124 0.125 0.271 0.224 0.434 0.292s0.337 0.103 0.513 0.103 0.35-0.035 0.513-0.103c0.162-0.068 0.31-0.167 0.434-0.292l5.72-5.733 5.72 5.733c0.124 0.125 0.271 0.224 0.434 0.292s0.337 0.103 0.513 0.103c0.176 0 0.35-0.035 0.513-0.103s0.31-0.167 0.434-0.292c0.125-0.124 0.224-0.271 0.292-0.434s0.103-0.337 0.103-0.513c0-0.176-0.035-0.35-0.103-0.513s-0.167-0.31-0.292-0.434l-5.733-5.72z"></path>
</symbol>
<symbol id="icon-search" viewBox="0 0 32 32">
<path stroke-linejoin="round" stroke-linecap="round" stroke-miterlimit="4" stroke-width="3.2" d="M13.6 24c5.744 0 10.4-4.656 10.4-10.4s-4.656-10.4-10.4-10.4c-5.744 0-10.4 4.656-10.4 10.4s4.656 10.4 10.4 10.4z"></path>
<path stroke-linejoin="round" stroke-linecap="round" stroke-miterlimit="4" stroke-width="3.2" d="M28.8 28.8l-8-8"></path>
</symbol>
<symbol id="icon-sanitizer" viewBox="0 0 32 32">
<path d="M17.333 16c-0.791 0-1.564 0.235-2.222 0.674s-1.17 1.064-1.473 1.795c-0.303 0.731-0.382 1.535-0.228 2.311s0.535 1.489 1.095 2.048c0.559 0.559 1.272 0.94 2.048 1.095s1.58 0.075 2.311-0.228c0.731-0.303 1.356-0.815 1.795-1.473s0.674-1.431 0.674-2.222c-0.001-1.061-0.423-2.077-1.173-2.827s-1.767-1.172-2.827-1.173zM17.333 21.333c-0.264 0-0.521-0.078-0.741-0.225s-0.39-0.355-0.491-0.598-0.127-0.512-0.076-0.77c0.051-0.259 0.178-0.496 0.365-0.683s0.424-0.313 0.683-0.365c0.259-0.051 0.527-0.025 0.77 0.076s0.452 0.272 0.598 0.491c0.147 0.219 0.225 0.477 0.225 0.741-0 0.353-0.141 0.692-0.391 0.942s-0.589 0.391-0.942 0.391zM25.067 10.133l-3.734-2.8v-3.333h1.333c0.354 0 0.693-0.14 0.943-0.391s0.39-0.589 0.39-0.943-0.14-0.693-0.39-0.943c-0.25-0.25-0.589-0.391-0.943-0.391h-11.124c-0.876-0.002-1.743 0.169-2.552 0.504s-1.544 0.827-2.161 1.448l-1.105 1.105c-0.126 0.123-0.226 0.27-0.294 0.433s-0.104 0.336-0.105 0.513c-0.001 0.176 0.033 0.351 0.1 0.513s0.166 0.311 0.29 0.435c0.125 0.125 0.272 0.223 0.435 0.29s0.337 0.101 0.513 0.1c0.176-0.001 0.35-0.036 0.513-0.105s0.309-0.168 0.433-0.294l1.105-1.105c0.752-0.747 1.768-1.168 2.828-1.171h1.791v3.333l-3.734 2.8c-0.495 0.374-0.898 0.857-1.175 1.412s-0.423 1.167-0.424 1.788v16c0 0.354 0.14 0.693 0.391 0.943s0.589 0.391 0.943 0.391h16c0.354 0 0.693-0.14 0.943-0.391s0.39-0.589 0.39-0.943v-16c-0.001-0.621-0.147-1.233-0.424-1.788s-0.68-1.039-1.175-1.412zM16 4h2.667v2.667h-2.667v-2.667zM24 28h-13.333v-14.667c0-0.207 0.049-0.411 0.141-0.596s0.227-0.346 0.392-0.471l3.911-2.933h4.444l3.911 2.933c0.165 0.124 0.3 0.286 0.392 0.471s0.141 0.389 0.141 0.596v14.667z"></path>
</symbol>
<symbol id="icon-heart" viewBox="0 0 32 32">
<path d="M26.88 6.667c-1.413-1.417-3.287-2.282-5.282-2.438s-3.981 0.406-5.598 1.585c-1.696-1.262-3.808-1.834-5.909-1.601s-4.037 1.253-5.416 2.855c-1.379 1.602-2.1 3.668-2.018 5.781s0.963 4.116 2.463 5.605l8.28 8.293c0.693 0.682 1.627 1.065 2.6 1.065s1.907-0.382 2.6-1.065l8.28-8.293c1.557-1.566 2.431-3.685 2.431-5.893s-0.874-4.327-2.431-5.893zM25 16.613l-8.28 8.28c-0.094 0.095-0.206 0.171-0.33 0.222s-0.256 0.078-0.39 0.078c-0.134 0-0.266-0.027-0.39-0.078s-0.236-0.127-0.33-0.222l-8.28-8.32c-1.046-1.069-1.631-2.505-1.631-4s0.586-2.931 1.631-4c1.066-1.052 2.503-1.642 4-1.642s2.934 0.59 4 1.642c0.124 0.125 0.271 0.224 0.434 0.292s0.337 0.103 0.513 0.103 0.35-0.035 0.513-0.103c0.163-0.068 0.31-0.167 0.434-0.292 1.066-1.052 2.503-1.642 4-1.642s2.935 0.59 4 1.642c1.060 1.055 1.665 2.483 1.685 3.978s-0.547 2.939-1.578 4.022v0.040z"></path>
</symbol>
<symbol id="icon-check" viewBox="0 0 32 32">
<path d="M24.947 9.613c-0.124-0.125-0.271-0.224-0.434-0.292s-0.337-0.103-0.513-0.103-0.35 0.035-0.513 0.103c-0.163 0.068-0.31 0.167-0.434 0.292l-9.933 9.947-4.173-4.187c-0.129-0.124-0.281-0.222-0.447-0.288s-0.344-0.098-0.523-0.095c-0.179 0.003-0.355 0.041-0.52 0.113s-0.313 0.174-0.437 0.303c-0.124 0.129-0.222 0.281-0.288 0.447s-0.098 0.344-0.095 0.523 0.041 0.355 0.113 0.52c0.071 0.164 0.174 0.312 0.303 0.437l5.12 5.12c0.124 0.125 0.271 0.224 0.434 0.292s0.337 0.103 0.513 0.103 0.35-0.035 0.513-0.103c0.162-0.068 0.31-0.167 0.434-0.292l10.88-10.88c0.135-0.125 0.243-0.276 0.317-0.445s0.112-0.351 0.112-0.535-0.038-0.366-0.112-0.535c-0.074-0.169-0.182-0.32-0.317-0.445z"></path>
</symbol>
<symbol id="icon-capsule" viewBox="0 0 32 32">
<path d="M26 6c-1.28-1.28-3.016-1.999-4.827-1.999s-3.547 0.719-4.827 1.999l-10.347 10.347c-0.649 0.63-1.166 1.384-1.522 2.216s-0.542 1.727-0.548 2.632c-0.007 0.905 0.167 1.802 0.51 2.639s0.849 1.598 1.489 2.238c0.64 0.64 1.401 1.146 2.238 1.489s1.734 0.517 2.639 0.51c0.905-0.007 1.799-0.193 2.631-0.548s1.585-0.873 2.216-1.522l10.347-10.347c1.28-1.28 1.999-3.016 1.999-4.827s-0.719-3.546-1.999-4.827zM13.76 24.12c-0.795 0.751-1.847 1.169-2.94 1.169s-2.145-0.418-2.94-1.169c-0.776-0.782-1.211-1.839-1.211-2.94s0.435-2.158 1.211-2.94l4.24-4.24 5.88 5.88-4.24 4.24zM24.12 13.76l-4.24 4.24-5.88-5.88 4.24-4.24c0.788-0.738 1.832-1.141 2.912-1.124s2.11 0.454 2.874 1.218c0.764 0.764 1.2 1.794 1.218 2.874s-0.385 2.124-1.123 2.912z"></path>
</symbol>
<symbol id="icon-bag" viewBox="0 0 32 32">
<path d="M31.951 25.957l-3.427-21.119c-0.305-1.876-1.936-3.238-3.877-3.238h-17.295c-1.942 0-3.572 1.362-3.877 3.238l-3.427 21.119c-0.18 1.112 0.145 2.24 0.892 3.096s1.835 1.347 2.985 1.347h24.148c1.15 0 2.238-0.491 2.985-1.347s1.072-1.984 0.892-3.096zM28.704 27.086c-0.093 0.106-0.298 0.284-0.63 0.284h-24.148c-0.333 0-0.538-0.178-0.631-0.284s-0.24-0.332-0.188-0.653l3.427-21.119c0.064-0.396 0.409-0.684 0.819-0.684h17.295c0.41 0 0.754 0.287 0.819 0.684l3.427 21.118c0.052 0.322-0.096 0.548-0.189 0.654z"></path>
<path d="M20.983 6.4c-0.783 0-1.417 0.691-1.417 1.544v4.285c0 2.142-1.6 3.884-3.566 3.884s-3.566-1.742-3.566-3.884v-4.285c0-0.853-0.634-1.544-1.417-1.544s-1.417 0.691-1.417 1.544v4.285c0 3.844 2.871 6.971 6.4 6.971s6.4-3.127 6.4-6.971v-4.285c0-0.853-0.634-1.544-1.417-1.544z"></path>
</symbol>
<symbol id="icon-baby-carriage" viewBox="0 0 32 32">
<path d="M25.333 21.333c-0.791 0-1.565 0.235-2.222 0.674s-1.171 1.064-1.473 1.795c-0.303 0.731-0.382 1.535-0.228 2.311s0.535 1.489 1.095 2.048c0.559 0.559 1.272 0.94 2.048 1.095s1.58 0.075 2.311-0.228c0.731-0.303 1.356-0.815 1.795-1.473s0.674-1.431 0.674-2.222c0-1.061-0.421-2.078-1.172-2.828s-1.768-1.172-2.828-1.172zM25.333 26.667c-0.264 0-0.521-0.078-0.741-0.225s-0.39-0.355-0.491-0.598-0.127-0.512-0.076-0.77c0.051-0.259 0.178-0.496 0.365-0.683s0.424-0.313 0.683-0.365 0.527-0.025 0.77 0.076c0.244 0.101 0.452 0.272 0.598 0.491s0.225 0.477 0.225 0.741c0 0.354-0.141 0.693-0.391 0.943s-0.589 0.391-0.943 0.391zM12 21.333c-0.791 0-1.564 0.235-2.222 0.674s-1.171 1.064-1.473 1.795c-0.303 0.731-0.382 1.535-0.228 2.311s0.535 1.489 1.095 2.048c0.559 0.559 1.272 0.94 2.048 1.095s1.58 0.075 2.311-0.228c0.731-0.303 1.356-0.815 1.795-1.473s0.674-1.431 0.674-2.222c0-1.061-0.421-2.078-1.172-2.828s-1.768-1.172-2.828-1.172zM12 26.667c-0.264 0-0.521-0.078-0.741-0.225s-0.39-0.355-0.491-0.598c-0.101-0.244-0.127-0.512-0.076-0.77s0.178-0.496 0.365-0.683c0.186-0.187 0.424-0.313 0.683-0.365s0.527-0.025 0.77 0.076c0.244 0.101 0.452 0.272 0.598 0.491s0.225 0.477 0.225 0.741c0 0.354-0.14 0.693-0.391 0.943s-0.589 0.391-0.943 0.391zM29.333 11.333c-0.003-2.297-0.918-4.5-2.542-6.124s-3.827-2.539-6.124-2.542h-0.667c-0.354 0-0.693 0.14-0.943 0.391s-0.391 0.589-0.391 0.943v6.667h-8.64l-1.667-4.467c-0.095-0.255-0.267-0.475-0.491-0.63s-0.49-0.238-0.763-0.237h-3.107c-0.354 0-0.693 0.14-0.943 0.391s-0.391 0.589-0.391 0.943c0 0.354 0.14 0.693 0.391 0.943s0.589 0.391 0.943 0.391h2.187l1.667 4.493 0.68 1.827v0.12c0.621 1.649 1.735 3.068 3.19 4.063s3.181 1.517 4.943 1.497h4c1.139 0.002 2.266-0.221 3.319-0.656s2.008-1.073 2.813-1.878c0.805-0.805 1.443-1.761 1.878-2.813s0.658-2.18 0.656-3.319zM24.907 15.573c-0.555 0.559-1.216 1.003-1.944 1.305s-1.508 0.457-2.296 0.455h-4c-1.192 0.004-2.357-0.35-3.346-1.016s-1.755-1.612-2.201-2.718c-0.006-0.026-0.006-0.054 0-0.080l-0.107-0.187h15.307c-0.291 0.846-0.775 1.613-1.413 2.24zM21.333 10.667v-5.333c1.366 0.142 2.641 0.75 3.612 1.721s1.579 2.246 1.721 3.612h-5.333z"></path>
</symbol>
<symbol id="icon-angle-right" viewBox="0 0 32 32">
<path d="M12.227 9.333c-0.248 0.25-0.388 0.588-0.388 0.94s0.139 0.69 0.388 0.94l4.72 4.787-4.72 4.72c-0.248 0.25-0.388 0.588-0.388 0.94s0.139 0.69 0.388 0.94c0.124 0.125 0.271 0.224 0.434 0.292s0.337 0.103 0.513 0.103c0.176 0 0.35-0.035 0.513-0.103s0.31-0.167 0.434-0.292l5.653-5.653c0.125-0.124 0.224-0.271 0.292-0.434s0.103-0.337 0.103-0.513c0-0.176-0.035-0.35-0.103-0.513s-0.167-0.31-0.292-0.434l-5.653-5.72c-0.124-0.125-0.271-0.224-0.434-0.292s-0.337-0.103-0.513-0.103c-0.176 0-0.35 0.035-0.513 0.103s-0.31 0.167-0.434 0.292z"></path>
</symbol>
<symbol id="icon-angle-left" viewBox="0 0 32 32">
<path d="M19.773 22.667c0.248-0.25 0.388-0.588 0.388-0.94s-0.139-0.69-0.388-0.94l-4.72-4.787 4.72-4.72c0.248-0.25 0.388-0.588 0.388-0.94s-0.139-0.69-0.388-0.94c-0.124-0.125-0.272-0.224-0.434-0.292s-0.337-0.103-0.513-0.103-0.35 0.035-0.513 0.103c-0.162 0.068-0.31 0.167-0.434 0.292l-5.653 5.653c-0.125 0.124-0.224 0.271-0.292 0.434s-0.103 0.337-0.103 0.513c0 0.176 0.035 0.35 0.103 0.513s0.167 0.31 0.292 0.434l5.653 5.72c0.124 0.125 0.272 0.224 0.434 0.292s0.337 0.103 0.513 0.103 0.35-0.035 0.513-0.103c0.162-0.068 0.31-0.167 0.434-0.292z"></path>
</symbol>
<symbol id="icon-angle-down" viewBox="0 0 32 32">
<path d="M22.667 12.227c-0.25-0.248-0.588-0.388-0.94-0.388s-0.69 0.139-0.94 0.388l-4.787 4.72-4.72-4.72c-0.25-0.248-0.588-0.388-0.94-0.388s-0.69 0.139-0.94 0.388c-0.125 0.124-0.224 0.271-0.292 0.434s-0.103 0.337-0.103 0.513c0 0.176 0.035 0.35 0.103 0.513s0.167 0.31 0.292 0.434l5.653 5.653c0.124 0.125 0.271 0.224 0.434 0.292s0.337 0.103 0.513 0.103c0.176 0 0.35-0.035 0.513-0.103s0.31-0.167 0.434-0.292l5.72-5.653c0.125-0.124 0.224-0.271 0.292-0.434s0.103-0.337 0.103-0.513c0-0.176-0.035-0.35-0.103-0.513s-0.167-0.31-0.292-0.434z"></path>
</symbol>
<symbol id="icon-account" viewBox="0 0 32 32">
<path d="M21.347 17.021c1.419-1.11 2.454-2.632 2.963-4.355s0.464-3.56-0.127-5.257c-0.591-1.696-1.698-3.168-3.169-4.209s-3.231-1.601-5.036-1.601c-1.805 0-3.566 0.56-5.036 1.601s-2.578 2.513-3.169 4.209c-0.591 1.697-0.635 3.534-0.127 5.257s1.544 3.245 2.963 4.355c-2.431 0.969-4.552 2.575-6.137 4.648s-2.575 4.536-2.864 7.124c-0.021 0.189-0.004 0.38 0.049 0.563s0.142 0.353 0.262 0.501c0.242 0.3 0.593 0.491 0.977 0.533s0.769-0.069 1.070-0.31 0.494-0.59 0.536-0.971c0.318-2.813 1.667-5.412 3.789-7.298s4.869-2.93 7.716-2.93c2.847 0 5.593 1.043 7.716 2.93s3.471 4.485 3.789 7.298c0.039 0.354 0.209 0.68 0.476 0.917s0.613 0.366 0.971 0.364h0.159c0.379-0.044 0.726-0.234 0.965-0.531s0.35-0.675 0.309-1.052c-0.29-2.596-1.285-5.064-2.878-7.141s-3.725-3.682-6.166-4.646zM15.979 16c-1.145 0-2.264-0.338-3.216-0.97s-1.694-1.532-2.132-2.584c-0.438-1.052-0.553-2.209-0.329-3.326s0.775-2.142 1.584-2.948c0.81-0.805 1.841-1.353 2.964-1.575s2.287-0.108 3.344 0.328c1.058 0.436 1.962 1.174 2.598 2.12s0.976 2.060 0.976 3.198c0 1.527-0.61 2.991-1.696 4.071s-2.558 1.686-4.093 1.686z"></path>
</symbol>
<symbol id="icon-search1" viewBox="0 0 32 32">
<path d="M31.008 27.231l-7.58-6.447c-0.784-0.705-1.622-1.029-2.299-0.998 1.789-2.096 2.87-4.815 2.87-7.787 0-6.627-5.373-12-12-12s-12 5.373-12 12 5.373 12 12 12c2.972 0 5.691-1.081 7.787-2.87-0.031 0.677 0.293 1.515 0.998 2.299l6.447 7.58c1.104 1.226 2.907 1.33 4.007 0.23s0.997-2.903-0.23-4.007zM12 20c-4.418 0-8-3.582-8-8s3.582-8 8-8 8 3.582 8 8-3.582 8-8 8z"></path>
</symbol>
<symbol id="icon-burger" viewBox="0 0 32 32">
<path stroke-linejoin="round" stroke-linecap="round" stroke-miterlimit="4" stroke-width="2" d="M4 8.003h24M4 16.003h24M4 24.003h24"></path>
</symbol>
<symbol id="icon-insta" viewBox="0 0 32 32">
<path d="M16 2.881c4.275 0 4.781 0.019 6.463 0.094 1.563 0.069 2.406 0.331 2.969 0.55 0.744 0.288 1.281 0.638 1.838 1.194 0.562 0.563 0.906 1.094 1.194 1.838 0.219 0.563 0.481 1.412 0.55 2.969 0.075 1.688 0.094 2.194 0.094 6.462 0 4.275-0.019 4.781-0.094 6.463-0.069 1.563-0.331 2.406-0.55 2.969-0.287 0.744-0.638 1.281-1.194 1.837-0.563 0.563-1.094 0.906-1.838 1.194-0.562 0.219-1.412 0.481-2.969 0.55-1.687 0.075-2.194 0.094-6.463 0.094-4.275 0-4.781-0.019-6.463-0.094-1.563-0.069-2.406-0.331-2.969-0.55-0.744-0.287-1.281-0.637-1.838-1.194-0.563-0.563-0.906-1.094-1.194-1.837-0.219-0.563-0.481-1.413-0.55-2.969-0.075-1.687-0.094-2.194-0.094-6.463 0-4.275 0.019-4.781 0.094-6.462 0.069-1.563 0.331-2.406 0.55-2.969 0.288-0.744 0.638-1.281 1.194-1.838 0.563-0.563 1.094-0.906 1.838-1.194 0.563-0.219 1.412-0.481 2.969-0.55 1.681-0.075 2.188-0.094 6.463-0.094zM16 0c-4.344 0-4.887 0.019-6.594 0.094-1.7 0.075-2.869 0.35-3.881 0.744-1.056 0.412-1.95 0.956-2.837 1.85-0.894 0.888-1.438 1.781-1.85 2.831-0.394 1.019-0.669 2.181-0.744 3.881-0.075 1.713-0.094 2.256-0.094 6.6s0.019 4.887 0.094 6.594c0.075 1.7 0.35 2.869 0.744 3.881 0.413 1.056 0.956 1.95 1.85 2.837 0.887 0.887 1.781 1.437 2.831 1.844 1.019 0.394 2.181 0.669 3.881 0.744 1.706 0.075 2.25 0.094 6.594 0.094s4.887-0.019 6.594-0.094c1.7-0.075 2.869-0.35 3.881-0.744 1.050-0.406 1.944-0.956 2.831-1.844s1.437-1.781 1.844-2.831c0.394-1.019 0.669-2.181 0.744-3.881 0.075-1.706 0.094-2.25 0.094-6.594s-0.019-4.888-0.094-6.594c-0.075-1.7-0.35-2.869-0.744-3.881-0.394-1.063-0.937-1.956-1.831-2.844-0.887-0.887-1.781-1.438-2.831-1.844-1.019-0.394-2.181-0.669-3.881-0.744-1.713-0.081-2.256-0.1-6.6-0.1z"></path>
<path d="M16 7.781c-4.537 0-8.219 3.681-8.219 8.219s3.681 8.219 8.219 8.219c4.537 0 8.219-3.681 8.219-8.219s-3.681-8.219-8.219-8.219zM16 21.331c-2.944 0-5.331-2.387-5.331-5.331s2.387-5.331 5.331-5.331c2.944 0 5.331 2.387 5.331 5.331s-2.387 5.331-5.331 5.331z"></path>
<path d="M26.463 7.455c0 1.063-0.863 1.919-1.919 1.919-1.063 0-1.919-0.863-1.919-1.919 0-1.063 0.862-1.919 1.919-1.919s1.919 0.862 1.919 1.919z"></path>
</symbol>
<symbol id="icon-facebookMessengersvg" viewBox="0 0 24 24">
<path d="M12.0001 24.0002C18.6276 24.0002 24.0002 18.6276 24.0002 12.0001C24.0002 5.37262 18.6276 0 12.0001 0C5.37262 0 0 5.37262 0 12.0001C0 18.6276 5.37262 24.0002 12.0001 24.0002Z" fill="white"/>
<path d="M18.2361 8.70089L14.816 11.2329C14.45 11.5089 13.952 11.5089 13.592 11.2389L11.2076 9.4443C10.1996 8.69429 8.77158 8.95229 8.09357 10.0083L7.36756 11.1423L4.90153 15.1503C4.54153 15.7143 5.23154 16.3563 5.76554 15.9543L9.18558 13.4223C9.55159 13.1463 10.0496 13.1463 10.4096 13.4163L12.794 15.2109C13.802 15.9609 15.23 15.7029 15.9081 14.6469L16.6341 13.5129L19.1001 9.5049C19.4601 8.94089 18.7701 8.29888 18.2361 8.70089Z" fill="#77C9CC"/>
</symbol>
<symbol id="icon-facebook" viewBox="0 0 32 32">
<path d="M32 16c0-8.837-7.163-16-16-16s-16 7.163-16 16c0 7.986 5.851 14.605 13.5 15.806v-11.181h-4.063v-4.625h4.063v-3.525c0-4.010 2.389-6.225 6.043-6.225 1.75 0 3.582 0.313 3.582 0.313v3.938h-2.018c-1.987 0-2.607 1.233-2.607 2.5v3h4.437l-0.709 4.625h-3.728v11.181c7.649-1.2 13.5-7.82 13.5-15.806z"></path>
</symbol>
<symbol id="icon-viber" viewBox="0 0 32 32">
<path d="M21.443 0.79l0.481 0.114c1.256 0.296 2.409 0.954 3.332 1.901s1.579 2.145 1.896 3.462c1.131 4.707 1.131 9.638 0 14.346-0.317 1.317-0.973 2.515-1.895 3.461s-2.076 1.605-3.331 1.901l-0.482 0.112c-2.843 0.671-5.762 0.917-8.67 0.729l-3.874 3.66c-0.095 0.089-0.21 0.15-0.335 0.176s-0.253 0.016-0.373-0.028c-0.12-0.044-0.226-0.122-0.308-0.224s-0.136-0.226-0.157-0.358l-0.66-4.158c-1.182-0.346-2.257-1.016-3.115-1.942s-1.469-2.075-1.771-3.331c-1.131-4.707-1.131-9.638 0-14.346 0.317-1.317 0.972-2.515 1.895-3.462s2.076-1.605 3.331-1.901l0.481-0.112c4.463-1.053 9.091-1.053 13.554 0zM9.086 6.144c-0.264-0.041-0.533 0.016-0.762 0.159h-0.020c-0.532 0.33-1.011 0.744-1.42 1.233-0.34 0.415-0.525 0.834-0.573 1.239-0.028 0.24-0.008 0.482 0.058 0.712l0.026 0.015c0.383 1.188 0.882 2.331 1.492 3.406 0.787 1.511 1.754 2.908 2.88 4.157l0.034 0.051 0.054 0.042 0.033 0.041 0.040 0.036c1.187 1.192 2.513 2.219 3.947 3.056 1.638 0.942 2.633 1.387 3.23 1.573v0.009c0.175 0.057 0.333 0.082 0.494 0.082 0.509-0.040 0.99-0.258 1.367-0.62 0.461-0.431 0.851-0.939 1.155-1.504v-0.011c0.285-0.569 0.189-1.105-0.223-1.469-0.826-0.762-1.72-1.44-2.668-2.022-0.636-0.364-1.281-0.144-1.542 0.225l-0.558 0.743c-0.287 0.369-0.806 0.318-0.806 0.318l-0.014 0.009c-3.874-1.044-4.908-5.186-4.908-5.186s-0.048-0.563 0.311-0.851l0.698-0.593c0.335-0.288 0.567-0.968 0.209-1.639-0.548-1.002-1.188-1.946-1.911-2.816-0.158-0.205-0.379-0.344-0.624-0.394zM15.631 4.343c-0.188 0-0.369 0.079-0.501 0.219s-0.208 0.331-0.208 0.53 0.075 0.389 0.208 0.53c0.133 0.14 0.313 0.219 0.501 0.219 1.795 0 3.284 0.619 4.463 1.805 0.606 0.649 1.078 1.417 1.387 2.259 0.311 0.843 0.453 1.744 0.416 2.645-0.004 0.098 0.011 0.197 0.043 0.289s0.081 0.177 0.144 0.25c0.127 0.146 0.305 0.233 0.493 0.242s0.372-0.063 0.51-0.197c0.139-0.135 0.221-0.322 0.229-0.52 0.044-1.109-0.13-2.216-0.512-3.251-0.383-1.039-0.965-1.985-1.708-2.777l-0.014-0.015c-1.463-1.475-3.314-2.227-5.45-2.227zM15.583 6.806c-0.188 0-0.369 0.079-0.501 0.219s-0.208 0.331-0.208 0.53 0.075 0.389 0.208 0.53c0.133 0.14 0.313 0.219 0.501 0.219h0.024c1.294 0.097 2.236 0.553 2.895 1.3 0.677 0.77 1.027 1.727 1 2.911-0.004 0.199 0.066 0.391 0.196 0.535s0.309 0.227 0.497 0.232 0.37-0.070 0.506-0.207c0.136-0.137 0.215-0.326 0.219-0.525 0.034-1.553-0.44-2.894-1.379-3.964v-0.003c-0.96-1.088-2.278-1.663-3.864-1.775l-0.024-0.003-0.071 0.002zM15.556 9.313c-0.095-0.009-0.191 0.003-0.281 0.034s-0.174 0.081-0.246 0.147c-0.072 0.066-0.13 0.147-0.172 0.237s-0.066 0.189-0.071 0.289 0.009 0.201 0.042 0.296c0.033 0.095 0.083 0.181 0.148 0.255s0.143 0.132 0.231 0.173c0.087 0.041 0.181 0.063 0.276 0.064 0.593 0.033 0.972 0.222 1.21 0.475 0.24 0.255 0.419 0.664 0.451 1.303 0.002 0.101 0.023 0.2 0.061 0.291s0.095 0.174 0.164 0.243c0.070 0.069 0.152 0.121 0.241 0.156s0.185 0.049 0.28 0.044c0.095-0.005 0.188-0.031 0.274-0.075s0.162-0.106 0.224-0.182 0.11-0.164 0.139-0.26c0.029-0.096 0.040-0.197 0.032-0.297-0.045-0.899-0.312-1.693-0.858-2.277-0.549-0.584-1.297-0.869-2.145-0.917z"></path>
</symbol>
<symbol id="icon-linkedin" viewBox="0 0 32 32">
<path d="M29.631 0h-27.269c-1.306 0-2.362 1.031-2.362 2.306v27.381c0 1.275 1.056 2.313 2.362 2.313h27.269c1.306 0 2.369-1.037 2.369-2.306v-27.387c0-1.275-1.063-2.306-2.369-2.306zM9.494 27.269h-4.75v-15.275h4.75v15.275zM7.119 9.912c-1.525 0-2.756-1.231-2.756-2.75s1.231-2.75 2.756-2.75c1.519 0 2.75 1.231 2.75 2.75 0 1.512-1.231 2.75-2.75 2.75zM27.269 27.269h-4.744v-7.425c0-1.769-0.031-4.050-2.469-4.050-2.469 0-2.844 1.931-2.844 3.925v7.55h-4.738v-15.275h4.55v2.087h0.063c0.631-1.2 2.181-2.469 4.488-2.469 4.806 0 5.694 3.163 5.694 7.275v8.381z"></path>
</symbol>
<symbol id="icon-tiktok" viewBox="0 0 32 32">
<path d="M19.467 32c-4.8 0-8.4-2.467-8.4-8.4v-9.467h-4.4v-5.133c4.8-1.267 6.8-5.4 7.067-9h5v8.133h5.8v6h-5.8v8.267c0 2.467 1.267 3.333 3.267 3.333h2.8v6.267h-5.333z"></path>
</symbol>
<symbol id="icon-self-medication-desktop" viewBox="0 0 388 32">
<path d="M3.122 27.951c-0.538 0-1.020-0.13-1.447-0.391-0.413-0.261-0.744-0.797-0.992-1.608s-0.372-2.058-0.372-3.738v-15.171c0-1.681 0.124-2.913 0.372-3.695 0.248-0.811 0.586-1.333 1.013-1.565 0.441-0.261 0.93-0.391 1.468-0.391 0.551 0 1.034 0.13 1.447 0.391 0.427 0.261 0.765 0.797 1.013 1.608 0.248 0.782 0.372 2 0.372 3.652v3.912h-0.496v-3.825c0-1.478-0.103-2.565-0.31-3.26-0.193-0.724-0.469-1.188-0.827-1.391-0.358-0.232-0.765-0.348-1.22-0.348s-0.861 0.116-1.22 0.348c-0.358 0.203-0.641 0.667-0.848 1.391-0.193 0.696-0.289 1.782-0.289 3.26v15.041c0 1.478 0.096 2.579 0.289 3.304 0.207 0.696 0.489 1.159 0.848 1.391 0.358 0.203 0.765 0.304 1.22 0.304 0.469 0 0.875-0.101 1.22-0.304 0.358-0.232 0.634-0.696 0.827-1.391 0.207-0.724 0.31-1.826 0.31-3.304v-3.043h0.496v3.086c0 1.71-0.124 2.97-0.372 3.782s-0.586 1.333-1.013 1.565c-0.427 0.261-0.923 0.391-1.488 0.391z"></path>
<path d="M7.223 27.43l3.080-25.691h0.393l3.060 25.691h-0.496l-0.848-6.868h-3.907l-0.827 6.868h-0.455zM8.567 19.823h3.804l-1.881-15.606-1.923 15.606z"></path>
<path d="M15.377 27.43v-25.691h0.476l3.349 24.039 3.432-24.039h0.393v25.691h-0.475v-21.953l-3.122 21.953h-0.434l-3.122-21.953v21.953h-0.496z"></path>
<path d="M28.429 27.951c-0.537 0-1.020-0.13-1.447-0.391-0.413-0.261-0.744-0.797-0.992-1.608s-0.372-2.058-0.372-3.738v-15.171c0-1.681 0.124-2.913 0.372-3.695 0.248-0.811 0.586-1.333 1.013-1.565 0.441-0.261 0.93-0.391 1.468-0.391 0.551 0 1.034 0.13 1.447 0.391 0.427 0.261 0.765 0.797 1.013 1.608 0.248 0.782 0.372 2 0.372 3.652v15.171c0 1.71-0.124 2.97-0.372 3.782s-0.586 1.333-1.013 1.565c-0.427 0.261-0.923 0.391-1.488 0.391zM28.45 27.169c0.469 0 0.875-0.101 1.22-0.304 0.358-0.232 0.634-0.696 0.827-1.391 0.207-0.724 0.31-1.826 0.31-3.304v-14.997c0-1.478-0.103-2.565-0.31-3.26-0.193-0.725-0.469-1.188-0.827-1.391-0.358-0.232-0.765-0.348-1.22-0.348-0.469 0-0.882 0.116-1.24 0.348-0.345 0.203-0.62 0.667-0.827 1.391-0.193 0.696-0.289 1.782-0.289 3.26v14.997c0 1.478 0.096 2.579 0.289 3.304 0.207 0.696 0.482 1.159 0.827 1.391 0.358 0.203 0.772 0.304 1.24 0.304z"></path>
<path d="M32.692 27.43v-0.782c0.276 0 0.496-0.232 0.661-0.696 0.165-0.493 0.269-1.333 0.31-2.521l0.682-21.692h5.292v25.691h-0.517v-24.822h-4.279l-0.703 21.214c-0.014 0.29-0.041 0.638-0.082 1.043-0.028 0.377-0.090 0.753-0.186 1.13-0.083 0.348-0.207 0.667-0.372 0.956-0.152 0.261-0.351 0.42-0.599 0.478h-0.207z"></path>
<path d="M41.855 27.43v-25.691h0.496v25.691h-0.496z"></path>
<path d="M45.156 27.43v-25.691h0.496v12.041h0.765l3.453-12.041h0.599l-3.535 12.389 3.659 13.302h-0.641l-3.473-12.78h-0.827v12.78h-0.496z"></path>
<path d="M51.252 27.604c-0.138 0-0.269-0.029-0.393-0.087-0.11-0.029-0.213-0.058-0.31-0.087v-0.782c0.069 0.029 0.152 0.058 0.248 0.087 0.11 0.029 0.234 0.043 0.372 0.043 0.165 0 0.344-0.072 0.537-0.217s0.379-0.406 0.558-0.782c0.124-0.29 0.227-0.638 0.31-1.043 0.097-0.406 0.173-0.884 0.228-1.435l-2.46-21.561h0.538l2.253 20.040h-0.041l2.295-20.040h0.496l-2.377 20.735c-0.221 1.855-0.49 3.173-0.806 3.956s-0.799 1.174-1.447 1.174z"></path>
<path d="M57.291 27.43v-25.691h3.37c0.607 0 1.13 0.319 1.571 0.956 0.441 0.609 0.662 1.695 0.662 3.26v3.26c0 0.84-0.062 1.579-0.186 2.217-0.11 0.609-0.255 1.101-0.434 1.478-0.221 0.435-0.476 0.71-0.765 0.826s-0.517 0.174-0.682 0.174v-0.13c0.317 0 0.613 0.072 0.889 0.217 0.289 0.116 0.517 0.362 0.682 0.739 0.193 0.435 0.338 0.956 0.434 1.565 0.11 0.58 0.165 1.261 0.165 2.043v3.869c0 1.507-0.11 2.637-0.331 3.391-0.207 0.725-0.503 1.217-0.889 1.478-0.372 0.232-0.806 0.348-1.302 0.348h-3.184zM57.787 26.648h2.667c0.413 0 0.772-0.101 1.075-0.304 0.317-0.232 0.558-0.667 0.724-1.304 0.165-0.667 0.248-1.652 0.248-2.956v-3.825c0-1.565-0.221-2.608-0.661-3.13s-0.986-0.782-1.633-0.782h-2.419v12.302zM57.787 13.52h2.398c0.731 0 1.282-0.377 1.654-1.13s0.558-1.768 0.558-3.043v-3.217c0-1.217-0.179-2.116-0.537-2.695-0.345-0.609-0.752-0.913-1.22-0.913h-2.853v10.998z"></path>
<path d="M64.278 27.43l3.080-25.691h0.393l3.059 25.691h-0.496l-0.848-6.868h-3.907l-0.827 6.868h-0.455zM65.622 19.823h3.804l-1.881-15.606-1.922 15.606z"></path>
<path d="M72.433 27.43v-25.691h0.496v11.737h4.734v-11.737h0.476v25.691h-0.476v-13.085h-4.734v13.085h-0.496z"></path>
<path d="M80.943 27.43v-25.691h0.496v11.737h4.734v-11.737h0.476v25.691h-0.476v-13.085h-4.734v13.085h-0.496z"></path>
<path d="M94.704 27.43h-0.496v-12.433h-2.088c-0.51 0-0.882 0.391-1.117 1.174-0.221 0.782-0.4 1.623-0.538 2.521l-1.282 8.738h-0.538l1.323-8.824c0.193-1.333 0.4-2.318 0.62-2.956 0.234-0.667 0.572-0.985 1.013-0.956v0.087c-0.717 0-1.316-0.362-1.799-1.087-0.468-0.725-0.703-1.884-0.703-3.478v-4.26c0-1.565 0.221-2.652 0.662-3.26 0.441-0.638 0.958-0.956 1.55-0.956h3.391v25.691zM94.207 14.172v-11.65h-2.749c-0.621 0-1.089 0.304-1.406 0.913-0.303 0.609-0.455 1.507-0.455 2.695v3.738c0 1.362 0.159 2.42 0.476 3.173 0.331 0.753 0.896 1.13 1.695 1.13h2.439z"></path>
<path d="M101.223 27.43v-25.691h0.476l3.349 24.039 3.432-24.039h0.393v25.691h-0.476v-21.953l-3.122 21.953h-0.434l-3.122-21.953v21.953h-0.496z"></path>
<path d="M114.275 27.951c-0.538 0-1.020-0.13-1.447-0.391-0.414-0.261-0.744-0.797-0.992-1.608s-0.372-2.058-0.372-3.738v-15.171c0-1.681 0.124-2.913 0.372-3.695 0.248-0.811 0.586-1.333 1.013-1.565 0.441-0.261 0.93-0.391 1.468-0.391 0.552 0 1.034 0.13 1.448 0.391 0.427 0.261 0.765 0.797 1.013 1.608 0.248 0.782 0.372 2 0.372 3.652v15.171c0 1.71-0.124 2.97-0.372 3.782s-0.586 1.333-1.013 1.565c-0.428 0.261-0.924 0.391-1.489 0.391zM114.296 27.169c0.469 0 0.876-0.101 1.22-0.304 0.358-0.232 0.634-0.696 0.827-1.391 0.207-0.724 0.31-1.826 0.31-3.304v-14.997c0-1.478-0.103-2.565-0.31-3.26-0.193-0.725-0.468-1.188-0.827-1.391-0.358-0.232-0.765-0.348-1.22-0.348-0.468 0-0.882 0.116-1.24 0.348-0.344 0.203-0.62 0.667-0.827 1.391-0.193 0.696-0.289 1.782-0.289 3.26v14.997c0 1.478 0.096 2.579 0.289 3.304 0.207 0.696 0.482 1.159 0.827 1.391 0.358 0.203 0.772 0.304 1.24 0.304z"></path>
<path d="M118.005 27.43l3.68-13.302-3.535-12.389h0.558l3.453 12.041h0.661v-11.998h0.517v11.998h0.641l3.432-12.041h0.6l-3.556 12.389 3.68 13.302h-0.62l-3.515-12.824h-0.661v12.824h-0.517v-12.824h-0.682l-3.535 12.824h-0.6z"></path>
<path d="M129.418 27.43v-25.691h5.023v0.826h-4.506v10.911h3.473v0.826h-3.473v12.302h4.506v0.826h-5.023z"></path>
<path d="M139.896 27.43v-25.691h5.106v0.869h-4.61v5.912h2.232c0.676 0 1.192 0.232 1.551 0.696 0.372 0.435 0.627 1.072 0.765 1.913 0.151 0.84 0.227 1.869 0.227 3.086v7.086c0 1.014-0.041 1.913-0.124 2.695-0.083 0.753-0.221 1.391-0.414 1.913-0.179 0.493-0.434 0.869-0.765 1.13-0.317 0.261-0.717 0.391-1.199 0.391h-2.77zM142.625 26.648c0.593 0 1.034-0.232 1.323-0.696 0.29-0.493 0.482-1.145 0.579-1.956s0.145-1.71 0.145-2.695v-6.781c0-0.869-0.041-1.695-0.124-2.478-0.083-0.811-0.275-1.464-0.579-1.956-0.289-0.522-0.751-0.782-1.385-0.782h-2.191v17.345h2.232z"></path>
<path d="M146.88 27.604c-0.138 0-0.269-0.029-0.393-0.087-0.11-0.029-0.213-0.058-0.31-0.087v-0.782c0.069 0.029 0.152 0.058 0.248 0.087 0.11 0.029 0.235 0.043 0.372 0.043 0.165 0 0.345-0.072 0.538-0.217s0.379-0.406 0.558-0.782c0.124-0.29 0.227-0.638 0.31-1.043 0.097-0.406 0.173-0.884 0.227-1.435l-2.46-21.561h0.538l2.253 20.040h-0.042l2.294-20.040h0.497l-2.378 20.735c-0.22 1.855-0.489 3.173-0.806 3.956s-0.799 1.174-1.447 1.174z"></path>
<path d="M153.725 27.43v-24.865h-2.171v-0.826h4.899v0.826h-2.233v24.865h-0.496z"></path>
<path d="M157.895 27.43v-25.691h0.496v23.387l4.775-23.387h0.496v25.691h-0.496v-22.909l-4.714 22.909h-0.558z"></path>
<path d="M170.171 27.43v-25.691h0.517v24.865h4.238v-24.865h0.517v24.865h4.238v-24.865h0.517v25.691h-10.027z"></path>
<path d="M183.001 27.43v-25.691h0.496v12.041h0.765l3.452-12.041h0.6l-3.535 12.389 3.659 13.302h-0.641l-3.473-12.78h-0.827v12.78h-0.496z"></path>
<path d="M189.593 27.43v-25.691h0.496v25.691h-0.496z"></path>
<path d="M191.468 31.864v-5.216h0.951c0.331-0.058 0.593-0.362 0.785-0.913s0.317-1.579 0.372-3.086c0.041-1.275 0.083-2.594 0.124-3.956s0.083-2.739 0.124-4.13c0.055-1.391 0.103-2.797 0.145-4.217s0.082-2.855 0.124-4.304c0.055-1.449 0.11-2.884 0.165-4.304h4.734v24.909h1.654v5.216h-0.496v-4.39h-8.187v4.39h-0.496zM193.555 26.648h4.92v-24.039h-3.721c-0.11 3.333-0.221 6.636-0.331 9.911-0.096 3.275-0.2 6.564-0.31 9.868-0.028 0.667-0.069 1.42-0.124 2.26s-0.2 1.507-0.434 2z"></path>
<path d="M201.053 27.43v-0.782c0.276 0 0.496-0.232 0.661-0.696 0.165-0.493 0.269-1.333 0.31-2.521l0.682-21.692h5.292v25.691h-0.517v-24.822h-4.28l-0.703 21.214c-0.014 0.29-0.041 0.638-0.083 1.043-0.028 0.377-0.090 0.753-0.186 1.13-0.082 0.348-0.207 0.667-0.372 0.956-0.151 0.261-0.351 0.42-0.6 0.478h-0.207z"></path>
<path d="M210.216 27.43v-25.691h0.496v23.387l4.775-23.387h0.496v25.691h-0.496v-22.909l-4.714 22.909h-0.558z"></path>
<path d="M218.787 27.43v-25.691h3.37c0.607 0 1.13 0.319 1.571 0.956 0.441 0.609 0.661 1.695 0.661 3.26v3.26c0 0.84-0.062 1.579-0.186 2.217-0.11 0.609-0.255 1.101-0.434 1.478-0.22 0.435-0.475 0.71-0.765 0.826s-0.517 0.174-0.682 0.174v-0.13c0.317 0 0.613 0.072 0.889 0.217 0.29 0.116 0.517 0.362 0.682 0.739 0.193 0.435 0.338 0.956 0.434 1.565 0.11 0.58 0.165 1.261 0.165 2.043v3.869c0 1.507-0.11 2.637-0.331 3.391-0.207 0.725-0.503 1.217-0.889 1.478-0.372 0.232-0.806 0.348-1.302 0.348h-3.184zM219.283 26.648h2.667c0.413 0 0.772-0.101 1.075-0.304 0.317-0.232 0.558-0.667 0.723-1.304 0.165-0.667 0.249-1.652 0.249-2.956v-3.825c0-1.565-0.221-2.608-0.662-3.13s-0.986-0.782-1.633-0.782h-2.419v12.302zM219.283 13.52h2.398c0.731 0 1.282-0.377 1.654-1.13s0.558-1.768 0.558-3.043v-3.217c0-1.217-0.179-2.116-0.538-2.695-0.344-0.609-0.751-0.913-1.219-0.913h-2.853v10.998z"></path>
<path d="M226.974 27.43v-25.691h0.496v23.387l4.775-23.387h0.496v25.691h-0.496v-22.909l-4.713 22.909h-0.558z"></path>
<path d="M235.544 27.43v-25.691h0.476l3.349 24.039 3.432-24.039h0.393v25.691h-0.475v-21.953l-3.122 21.953h-0.434l-3.122-21.953v21.953h-0.496z"></path>
<path d="M248.291 31.864v-5.216h0.951c0.331-0.058 0.593-0.362 0.785-0.913s0.317-1.579 0.372-3.086c0.041-1.275 0.083-2.594 0.124-3.956s0.082-2.739 0.124-4.13c0.055-1.391 0.103-2.797 0.145-4.217s0.083-2.855 0.124-4.304c0.055-1.449 0.11-2.884 0.165-4.304h4.735v24.909h1.653v5.216h-0.496v-4.39h-8.187v4.39h-0.496zM250.379 26.648h4.92v-24.039h-3.721c-0.11 3.333-0.221 6.636-0.331 9.911-0.096 3.275-0.2 6.564-0.31 9.868-0.028 0.667-0.069 1.42-0.124 2.26s-0.2 1.507-0.434 2z"></path>
<path d="M257.876 27.43v-0.782c0.275 0 0.496-0.232 0.661-0.696 0.165-0.493 0.269-1.333 0.31-2.521l0.682-21.692h5.293v25.691h-0.517v-24.822h-4.279l-0.703 21.214c-0.014 0.29-0.042 0.638-0.083 1.043-0.028 0.377-0.090 0.753-0.186 1.13-0.082 0.348-0.207 0.667-0.372 0.956-0.151 0.261-0.352 0.42-0.599 0.478h-0.207z"></path>
<path d="M272.291 27.43h-0.496v-12.433h-2.088c-0.51 0-0.882 0.391-1.117 1.174-0.221 0.782-0.4 1.623-0.538 2.521l-1.282 8.738h-0.538l1.323-8.824c0.193-1.333 0.4-2.318 0.62-2.956 0.234-0.667 0.572-0.985 1.013-0.956v0.087c-0.717 0-1.316-0.362-1.799-1.087-0.468-0.725-0.703-1.884-0.703-3.478v-4.26c0-1.565 0.221-2.652 0.661-3.26 0.441-0.638 0.958-0.956 1.551-0.956h3.391v25.691zM271.794 14.172v-11.65h-2.749c-0.621 0-1.089 0.304-1.406 0.913-0.303 0.609-0.455 1.507-0.455 2.695v3.738c0 1.362 0.159 2.42 0.476 3.173 0.331 0.753 0.896 1.13 1.695 1.13h2.44z"></path>
<path d="M278.81 27.43v-25.691h3.37c0.606 0 1.13 0.319 1.571 0.956 0.441 0.609 0.662 1.695 0.662 3.26v3.26c0 0.84-0.062 1.579-0.186 2.217-0.11 0.609-0.255 1.101-0.434 1.478-0.221 0.435-0.476 0.71-0.765 0.826s-0.517 0.174-0.682 0.174v-0.13c0.317 0 0.613 0.072 0.889 0.217 0.289 0.116 0.517 0.362 0.682 0.739 0.193 0.435 0.338 0.956 0.434 1.565 0.11 0.58 0.165 1.261 0.165 2.043v3.869c0 1.507-0.11 2.637-0.331 3.391-0.206 0.725-0.503 1.217-0.889 1.478-0.372 0.232-0.806 0.348-1.303 0.348h-3.183zM279.306 26.648h2.667c0.414 0 0.772-0.101 1.075-0.304 0.317-0.232 0.558-0.667 0.723-1.304 0.165-0.667 0.248-1.652 0.248-2.956v-3.825c0-1.565-0.221-2.608-0.662-3.13s-0.985-0.782-1.633-0.782h-2.419v12.302zM279.306 13.52h2.398c0.73 0 1.281-0.377 1.653-1.13s0.558-1.768 0.558-3.043v-3.217c0-1.217-0.179-2.116-0.538-2.695-0.344-0.609-0.751-0.913-1.22-0.913h-2.853v10.998z"></path>
<path d="M285.798 27.43l3.080-25.691h0.393l3.059 25.691h-0.496l-0.848-6.868h-3.907l-0.827 6.868h-0.455zM287.142 19.823h3.804l-1.882-15.606-1.922 15.606z"></path>
<path d="M293.952 27.43v-25.691h0.517v24.865h4.238v-24.865h0.517v24.865h4.238v-24.865h0.517v25.691h-10.027z"></path>
<path d="M309.367 27.951c-0.538 0-1.020-0.13-1.447-0.391-0.414-0.261-0.744-0.797-0.992-1.608s-0.372-2.058-0.372-3.738v-15.171c0-1.681 0.124-2.913 0.372-3.695 0.248-0.811 0.586-1.333 1.013-1.565 0.441-0.261 0.93-0.391 1.468-0.391 0.551 0 1.034 0.13 1.447 0.391 0.427 0.261 0.765 0.797 1.013 1.608 0.248 0.782 0.372 2 0.372 3.652v15.171c0 1.71-0.124 2.97-0.372 3.782s-0.586 1.333-1.013 1.565c-0.427 0.261-0.924 0.391-1.488 0.391zM309.387 27.169c0.468 0 0.875-0.101 1.22-0.304 0.358-0.232 0.634-0.696 0.827-1.391 0.207-0.724 0.31-1.826 0.31-3.304v-14.997c0-1.478-0.103-2.565-0.31-3.26-0.193-0.725-0.468-1.188-0.827-1.391-0.358-0.232-0.765-0.348-1.22-0.348-0.468 0-0.882 0.116-1.24 0.348-0.345 0.203-0.621 0.667-0.827 1.391-0.193 0.696-0.29 1.782-0.29 3.26v14.997c0 1.478 0.096 2.579 0.29 3.304 0.206 0.696 0.482 1.159 0.827 1.391 0.358 0.203 0.772 0.304 1.24 0.304z"></path>
<path d="M314.828 27.43v-25.691h5.086v0.869h-4.57v24.822h-0.517z"></path>
<path d="M323.298 27.951c-0.538 0-1.020-0.13-1.446-0.391-0.414-0.261-0.746-0.797-0.994-1.608s-0.373-2.058-0.373-3.738v-15.171c0-1.681 0.124-2.913 0.373-3.695 0.248-0.811 0.586-1.333 1.013-1.565 0.44-0.261 0.93-0.391 1.469-0.391 0.551 0 1.033 0.13 1.447 0.391 0.427 0.261 0.765 0.797 1.013 1.608 0.248 0.782 0.373 2 0.373 3.652v15.171c0 1.71-0.124 2.97-0.373 3.782s-0.586 1.333-1.013 1.565c-0.427 0.261-0.924 0.391-1.488 0.391zM323.317 27.169c0.468 0 0.876-0.101 1.22-0.304 0.357-0.232 0.634-0.696 0.829-1.391 0.204-0.724 0.309-1.826 0.309-3.304v-14.997c0-1.478-0.105-2.565-0.309-3.26-0.194-0.725-0.471-1.188-0.829-1.391-0.357-0.232-0.765-0.348-1.22-0.348-0.468 0-0.883 0.116-1.24 0.348-0.344 0.203-0.622 0.667-0.829 1.391-0.191 0.696-0.287 1.782-0.287 3.26v14.997c0 1.478 0.095 2.579 0.287 3.304 0.207 0.696 0.484 1.159 0.829 1.391 0.357 0.203 0.771 0.304 1.24 0.304z"></path>
<path d="M334.572 27.777c-0.742 0-1.335-0.29-1.778-0.869-0.427-0.58-0.736-1.362-0.93-2.347-0.178-0.985-0.268-2.058-0.268-3.217v-2.304h0.539v2.652c0 1.594 0.213 2.855 0.64 3.782 0.427 0.898 1.026 1.377 1.797 1.435 0.73 0 1.316-0.449 1.759-1.348 0.452-0.927 0.682-2.203 0.682-3.825v-2.304c0-1.536-0.229-2.739-0.682-3.608-0.456-0.869-1.055-1.333-1.8-1.391h-1.364v-1h1.364c0.36 0 0.704-0.159 1.036-0.478 0.328-0.319 0.606-0.782 0.826-1.391 0.165-0.464 0.29-0.956 0.373-1.478 0.083-0.551 0.124-1.13 0.124-1.739v-1.304c0-1.275-0.188-2.362-0.558-3.26-0.373-0.898-0.959-1.348-1.759-1.348s-1.383 0.449-1.756 1.348c-0.373 0.898-0.558 2-0.558 3.304v1.869h-0.561v-1.521c0-1.826 0.229-3.26 0.685-4.304 0.452-1.043 1.182-1.565 2.189-1.565s1.736 0.522 2.192 1.565c0.455 1.043 0.682 2.478 0.682 4.304v0.826c0 1.536-0.185 2.768-0.558 3.695-0.36 0.927-0.8 1.594-1.323 2 0.676 0.319 1.169 1 1.488 2.043 0.332 1.043 0.497 2.304 0.497 3.782v1.565c0 1.159-0.093 2.232-0.271 3.217s-0.488 1.768-0.93 2.347c-0.427 0.58-1.020 0.869-1.778 0.869z"></path>
<path d="M338.236 31.864v-5.216h0.949c0.332-0.058 0.593-0.362 0.787-0.913 0.191-0.551 0.316-1.579 0.37-3.086 0.042-1.275 0.083-2.594 0.124-3.956s0.082-2.739 0.126-4.13c0.054-1.391 0.102-2.797 0.146-4.217 0.041-1.42 0.082-2.855 0.123-4.304 0.054-1.449 0.109-2.884 0.167-4.304h4.732v24.909h1.651v5.216h-0.494v-4.39h-8.188v4.39h-0.494zM340.323 26.648h4.92v-24.039h-3.721c-0.109 3.333-0.221 6.636-0.334 9.911-0.095 3.275-0.197 6.564-0.306 9.868-0.031 0.667-0.072 1.42-0.126 2.26s-0.201 1.507-0.433 2z"></path>
<path d="M351.602 27.951c-0.538 0-1.018-0.13-1.447-0.391-0.412-0.261-0.746-0.797-0.991-1.608-0.248-0.811-0.371-2.058-0.371-3.738v-15.171c0-1.681 0.123-2.913 0.371-3.695 0.245-0.811 0.586-1.333 1.011-1.565 0.443-0.261 0.929-0.391 1.471-0.391 0.548 0 1.031 0.13 1.443 0.391 0.429 0.261 0.766 0.797 1.014 1.608 0.248 0.782 0.374 2 0.374 3.652v15.171c0 1.71-0.126 2.97-0.374 3.782s-0.586 1.333-1.014 1.565c-0.426 0.261-0.923 0.391-1.488 0.391zM351.626 27.169c0.466 0 0.872-0.101 1.215-0.304 0.361-0.232 0.637-0.696 0.831-1.391 0.208-0.724 0.31-1.826 0.31-3.304v-14.997c0-1.478-0.102-2.565-0.31-3.26-0.194-0.725-0.47-1.188-0.831-1.391-0.354-0.232-0.763-0.348-1.215-0.348-0.47 0-0.882 0.116-1.243 0.348-0.344 0.203-0.62 0.667-0.827 1.391-0.194 0.696-0.289 1.782-0.289 3.26v14.997c0 1.478 0.095 2.579 0.289 3.304 0.208 0.696 0.483 1.159 0.827 1.391 0.361 0.203 0.773 0.304 1.243 0.304z"></path>
<path d="M357.066 27.43v-25.691h3.391c0.603 0 1.123 0.319 1.549 0.956 0.443 0.609 0.66 1.695 0.66 3.26v4.912c0 0.869-0.068 1.681-0.208 2.434-0.123 0.754-0.378 1.362-0.763 1.826-0.371 0.464-0.933 0.696-1.675 0.696h-2.441v11.607h-0.514zM357.58 15.041h2.42c0.715 0 1.253-0.362 1.61-1.087 0.374-0.754 0.562-1.855 0.562-3.304v-4.477c0-1.246-0.18-2.159-0.538-2.739-0.344-0.609-0.746-0.913-1.198-0.913h-2.856v12.52z"></path>
<path d="M367.149 27.951c-0.538 0-1.018-0.13-1.447-0.391-0.415-0.261-0.746-0.797-0.994-1.608-0.245-0.811-0.368-2.058-0.368-3.738v-15.171c0-1.681 0.123-2.913 0.368-3.695 0.248-0.811 0.586-1.333 1.014-1.565 0.443-0.261 0.929-0.391 1.467-0.391 0.551 0 1.031 0.13 1.447 0.391 0.429 0.261 0.766 0.797 1.014 1.608 0.248 0.782 0.371 2 0.371 3.652v15.171c0 1.71-0.123 2.97-0.371 3.782s-0.586 1.333-1.014 1.565c-0.426 0.261-0.923 0.391-1.488 0.391zM367.169 27.169c0.466 0 0.875-0.101 1.219-0.304 0.361-0.232 0.633-0.696 0.831-1.391 0.204-0.724 0.306-1.826 0.306-3.304v-14.997c0-1.478-0.102-2.565-0.306-3.26-0.197-0.725-0.47-1.188-0.831-1.391-0.357-0.232-0.763-0.348-1.219-0.348-0.47 0-0.882 0.116-1.239 0.348-0.347 0.203-0.62 0.667-0.827 1.391-0.194 0.696-0.289 1.782-0.289 3.26v14.997c0 1.478 0.095 2.579 0.289 3.304 0.208 0.696 0.48 1.159 0.827 1.391 0.357 0.203 0.769 0.304 1.239 0.304z"></path>
<path d="M372.609 27.43v-25.691h3.37c0.609 0 1.13 0.319 1.573 0.956 0.439 0.609 0.66 1.695 0.66 3.26v3.26c0 0.84-0.061 1.579-0.184 2.217-0.112 0.609-0.255 1.101-0.439 1.478-0.218 0.435-0.473 0.71-0.763 0.826s-0.517 0.174-0.684 0.174v-0.13c0.32 0 0.616 0.072 0.892 0.217 0.289 0.116 0.517 0.362 0.681 0.739 0.194 0.435 0.337 0.956 0.436 1.565 0.109 0.58 0.167 1.261 0.167 2.043v3.869c0 1.507-0.112 2.637-0.334 3.391-0.204 0.725-0.5 1.217-0.889 1.478-0.371 0.232-0.807 0.348-1.304 0.348h-3.183zM373.106 26.648h2.669c0.412 0 0.769-0.101 1.072-0.304 0.317-0.232 0.558-0.667 0.725-1.304 0.163-0.667 0.248-1.652 0.248-2.956v-3.825c0-1.565-0.221-2.608-0.664-3.13-0.439-0.522-0.984-0.782-1.631-0.782h-2.42v12.302zM373.106 13.52h2.397c0.732 0 1.283-0.377 1.654-1.13 0.374-0.753 0.558-1.768 0.558-3.043v-3.217c0-1.217-0.18-2.116-0.534-2.695-0.344-0.609-0.752-0.913-1.222-0.913h-2.853v10.998z"></path>
<path d="M380.694 3.782l-1.512-3.782h0.664l1.157 3.782h-0.31z"></path>
<path d="M387.775 27.43h-0.497v-12.433h-2.087c-0.511 0-0.885 0.391-1.117 1.174-0.221 0.782-0.402 1.623-0.538 2.521l-1.28 8.738h-0.541l1.324-8.824c0.194-1.333 0.402-2.318 0.62-2.956 0.235-0.667 0.572-0.985 1.014-0.956v0.087c-0.718 0-1.314-0.362-1.801-1.087-0.466-0.725-0.701-1.884-0.701-3.478v-4.26c0-1.565 0.221-2.652 0.66-3.26 0.443-0.638 0.96-0.956 1.552-0.956h3.391v25.691zM387.278 14.172v-11.65h-2.751c-0.62 0-1.086 0.304-1.406 0.913-0.303 0.609-0.456 1.507-0.456 2.695v3.738c0 1.362 0.16 2.42 0.48 3.173 0.33 0.753 0.895 1.13 1.695 1.13h2.437z"></path>
</symbol>
<symbol id="icon-consult-desktop" viewBox="0 0 561 32">
<path d="M0.449 27.698v-22.778h7.18v22.778h-0.721v-22.007h-5.739v22.007h-0.721z"></path>
<path d="M11.955 27.698v-22.778h6.737v0.732h-6.044v9.674h4.657v0.732h-4.657v10.907h6.044v0.732h-6.737z"></path>
<path d="M21.593 27.698v-22.778h4.547c0.813 0 1.506 0.283 2.079 0.848 0.591 0.54 0.887 1.503 0.887 2.891v4.355c0 0.771-0.092 1.49-0.277 2.158-0.166 0.668-0.508 1.208-1.026 1.619-0.499 0.411-1.247 0.617-2.246 0.617h-3.271v10.291h-0.693zM22.286 16.714h3.244c0.961 0 1.682-0.321 2.162-0.964 0.499-0.668 0.749-1.644 0.749-2.929v-3.97c0-1.105-0.24-1.914-0.721-2.428-0.462-0.54-0.998-0.809-1.608-0.809h-3.826v11.1z"></path>
<path d="M32.206 27.698v-22.778h6.737v0.732h-6.044v9.674h4.657v0.732h-4.657v10.907h6.044v0.732h-6.737z"></path>
<path d="M39.931 31.63v-4.625h1.275c0.444-0.051 0.795-0.321 1.053-0.809s0.425-1.4 0.499-2.736c0.055-1.131 0.111-2.3 0.166-3.507s0.111-2.428 0.166-3.662c0.074-1.233 0.139-2.479 0.194-3.739s0.111-2.531 0.166-3.816c0.074-1.285 0.148-2.557 0.222-3.816h6.349v22.084h2.218v4.625h-0.666v-3.893h-10.978v3.893h-0.665zM42.731 27.005h6.598v-21.314h-4.99c-0.148 2.955-0.296 5.884-0.444 8.787-0.129 2.903-0.268 5.82-0.416 8.749-0.037 0.591-0.092 1.259-0.166 2.004s-0.268 1.336-0.582 1.773z"></path>
<path d="M63.298 28.007c-0.998 0-1.793-0.257-2.384-0.771-0.573-0.514-0.989-1.208-1.248-2.081-0.24-0.874-0.36-1.824-0.36-2.852v-2.043h0.721v2.351c0 1.413 0.287 2.531 0.86 3.353 0.573 0.796 1.377 1.22 2.412 1.272 0.979 0 1.765-0.398 2.356-1.195 0.61-0.822 0.915-1.953 0.915-3.392v-2.043c0-1.362-0.305-2.428-0.915-3.199s-1.414-1.182-2.412-1.233h-1.829v-0.886h1.829c0.48 0 0.943-0.141 1.386-0.424s0.813-0.694 1.109-1.233c0.222-0.411 0.388-0.848 0.499-1.31 0.111-0.488 0.166-1.002 0.166-1.542v-1.156c0-1.131-0.25-2.094-0.749-2.891s-1.284-1.195-2.356-1.195c-1.072 0-1.857 0.398-2.357 1.195s-0.749 1.773-0.749 2.929v1.657h-0.748v-1.349c0-1.619 0.305-2.891 0.915-3.816s1.59-1.388 2.939-1.388c1.349 0 2.328 0.463 2.939 1.388s0.915 2.197 0.915 3.816v0.732c0 1.362-0.25 2.454-0.748 3.276-0.481 0.822-1.072 1.413-1.775 1.773 0.906 0.283 1.571 0.886 1.996 1.811 0.444 0.925 0.665 2.043 0.665 3.353v1.388c0 1.028-0.12 1.979-0.36 2.852s-0.656 1.567-1.247 2.081c-0.574 0.514-1.368 0.771-2.384 0.771z"></path>
<path d="M69.069 27.698l4.131-22.778h0.526l4.103 22.778h-0.666l-1.137-6.090h-5.24l-1.109 6.090h-0.61zM70.871 20.954h5.101l-2.523-13.836-2.578 13.836z"></path>
<path d="M84.024 28.161c-0.721 0-1.368-0.116-1.94-0.347-0.555-0.231-0.998-0.707-1.331-1.426s-0.499-1.824-0.499-3.315v-13.451c0-1.49 0.166-2.582 0.499-3.276 0.332-0.719 0.785-1.182 1.358-1.388 0.591-0.231 1.248-0.347 1.968-0.347 0.739 0 1.386 0.116 1.941 0.347 0.573 0.231 1.025 0.707 1.358 1.426 0.333 0.694 0.499 1.773 0.499 3.237v3.469h-0.666v-3.392c0-1.31-0.138-2.274-0.416-2.891-0.258-0.642-0.628-1.053-1.109-1.233-0.481-0.206-1.025-0.308-1.636-0.308s-1.155 0.103-1.635 0.308c-0.481 0.18-0.86 0.591-1.137 1.233-0.259 0.617-0.388 1.58-0.388 2.891v13.335c0 1.31 0.129 2.287 0.388 2.929 0.277 0.617 0.656 1.028 1.137 1.233 0.48 0.18 1.025 0.27 1.635 0.27 0.629 0 1.174-0.090 1.636-0.27 0.481-0.206 0.85-0.617 1.109-1.233 0.278-0.642 0.416-1.619 0.416-2.929v-2.698h0.666v2.736c0 1.516-0.166 2.634-0.499 3.353s-0.786 1.182-1.358 1.387c-0.573 0.231-1.239 0.347-1.996 0.347z"></path>
<path d="M92.767 27.698v-22.046h-2.911v-0.732h6.571v0.732h-2.994v22.046h-0.666z"></path>
<path d="M102.38 28.161c-0.721 0-1.368-0.116-1.941-0.347-0.554-0.231-0.998-0.707-1.331-1.426s-0.499-1.824-0.499-3.315v-13.451c0-1.49 0.166-2.582 0.499-3.276 0.333-0.719 0.786-1.182 1.359-1.388 0.591-0.231 1.247-0.347 1.968-0.347 0.739 0 1.386 0.116 1.941 0.347 0.573 0.231 1.025 0.707 1.358 1.426 0.333 0.694 0.499 1.773 0.499 3.237v13.451c0 1.516-0.166 2.634-0.499 3.353s-0.786 1.182-1.358 1.387c-0.573 0.231-1.238 0.347-1.996 0.347zM102.408 27.467c0.628 0 1.173-0.090 1.635-0.27 0.481-0.206 0.85-0.617 1.109-1.233 0.277-0.642 0.415-1.619 0.415-2.929v-13.297c0-1.31-0.139-2.274-0.415-2.891-0.259-0.642-0.629-1.053-1.109-1.233-0.481-0.205-1.026-0.308-1.635-0.308-0.629 0-1.183 0.103-1.663 0.308-0.462 0.18-0.832 0.591-1.109 1.233-0.258 0.617-0.388 1.58-0.388 2.891v13.297c0 1.31 0.129 2.287 0.388 2.929 0.278 0.617 0.647 1.028 1.109 1.233 0.481 0.18 1.035 0.27 1.663 0.27z"></path>
<path d="M113.724 28.161c-0.721 0-1.368-0.116-1.941-0.347-0.554-0.231-0.997-0.707-1.33-1.426s-0.499-1.824-0.499-3.315v-13.451c0-1.49 0.166-2.582 0.499-3.276 0.333-0.719 0.785-1.182 1.358-1.388 0.591-0.231 1.248-0.347 1.968-0.347 0.739 0 1.386 0.116 1.941 0.347 0.573 0.231 1.026 0.707 1.358 1.426 0.332 0.694 0.499 1.773 0.499 3.237v3.469h-0.665v-3.392c0-1.31-0.139-2.274-0.416-2.891-0.258-0.642-0.628-1.053-1.109-1.233-0.481-0.206-1.025-0.308-1.635-0.308s-1.155 0.103-1.636 0.308c-0.481 0.18-0.86 0.591-1.136 1.233-0.259 0.617-0.388 1.58-0.388 2.891v13.335c0 1.31 0.129 2.287 0.388 2.929 0.277 0.617 0.656 1.028 1.136 1.233 0.481 0.18 1.025 0.27 1.636 0.27 0.628 0 1.174-0.090 1.635-0.27 0.481-0.206 0.85-0.617 1.109-1.233 0.278-0.642 0.416-1.619 0.416-2.929v-2.698h0.665v2.736c0 1.516-0.166 2.634-0.499 3.353s-0.785 1.182-1.358 1.387c-0.573 0.231-1.239 0.347-1.996 0.347z"></path>
<path d="M120.72 27.852c-0.185 0-0.36-0.026-0.527-0.077-0.148-0.026-0.287-0.051-0.416-0.077v-0.694c0.093 0.026 0.203 0.051 0.332 0.077 0.148 0.026 0.315 0.038 0.499 0.038 0.222 0 0.462-0.064 0.721-0.193s0.508-0.36 0.748-0.694c0.166-0.257 0.305-0.565 0.415-0.925 0.129-0.36 0.231-0.784 0.305-1.272l-3.299-19.117h0.721l3.022 17.768h-0.056l3.078-17.768h0.665l-3.188 18.384c-0.296 1.644-0.656 2.814-1.082 3.507s-1.072 1.041-1.94 1.041z"></path>
<path d="M129.372 27.698v-22.778h4.519c0.813 0 1.515 0.283 2.107 0.848 0.591 0.54 0.887 1.503 0.887 2.891v2.891c0 0.745-0.083 1.4-0.25 1.966-0.148 0.54-0.342 0.976-0.582 1.31-0.296 0.385-0.638 0.63-1.025 0.732s-0.693 0.154-0.915 0.154v-0.116c0.425 0 0.822 0.064 1.192 0.193 0.388 0.103 0.693 0.321 0.915 0.655 0.259 0.385 0.453 0.848 0.582 1.388 0.148 0.514 0.222 1.118 0.222 1.811v3.43c0 1.336-0.148 2.338-0.444 3.006-0.277 0.642-0.674 1.079-1.192 1.31-0.499 0.206-1.081 0.308-1.747 0.308h-4.269zM130.038 27.005h3.576c0.554 0 1.035-0.090 1.441-0.27 0.425-0.206 0.749-0.591 0.97-1.156 0.222-0.591 0.333-1.465 0.333-2.621v-3.392c0-1.388-0.296-2.312-0.887-2.775s-1.321-0.694-2.19-0.694h-3.243v10.907zM130.038 15.365h3.216c0.979 0 1.719-0.334 2.218-1.002s0.748-1.567 0.748-2.698v-2.852c0-1.079-0.24-1.876-0.721-2.39-0.462-0.54-1.007-0.809-1.636-0.809h-3.825v9.751z"></path>
<path d="M139.297 27.698l4.13-22.778h0.527l4.103 22.778h-0.666l-1.137-6.090h-5.24l-1.109 6.090h-0.61zM141.099 20.954h5.101l-2.523-13.836-2.578 13.836z"></path>
<path d="M150.787 27.698v-22.778h0.665v10.406h6.349v-10.406h0.638v22.778h-0.638v-11.601h-6.349v11.601h-0.665z"></path>
<path d="M162.753 27.698v-22.778h0.665v10.406h6.348v-10.406h0.638v22.778h-0.638v-11.601h-6.348v11.601h-0.665z"></path>
<path d="M181.761 27.698h-0.666v-11.023h-2.8c-0.684 0-1.183 0.347-1.497 1.041-0.296 0.694-0.536 1.439-0.721 2.235l-1.719 7.747h-0.721l1.774-7.824c0.259-1.182 0.536-2.056 0.832-2.621 0.314-0.591 0.767-0.874 1.358-0.848v0.077c-0.961 0-1.765-0.321-2.412-0.963-0.628-0.642-0.943-1.67-0.943-3.083v-3.777c0-1.388 0.296-2.351 0.887-2.891 0.592-0.565 1.285-0.848 2.079-0.848h4.546v22.778zM181.096 15.943v-10.329h-3.687c-0.832 0-1.46 0.27-1.885 0.809-0.407 0.54-0.61 1.336-0.61 2.39v3.315c0 1.208 0.212 2.145 0.638 2.814 0.444 0.668 1.201 1.002 2.273 1.002h3.271z"></path>
<path d="M186.090 27.698v-22.778h0.638l4.491 21.314 4.602-21.314h0.527v22.778h-0.638v-19.464l-4.186 19.464h-0.582l-4.186-19.464v19.464h-0.666z"></path>
<path d="M206.206 27.698v-22.778h7.18v22.778h-0.721v-22.007h-5.738v22.007h-0.721z"></path>
<path d="M217.712 27.698v-22.778h4.546c0.813 0 1.506 0.283 2.079 0.848 0.592 0.54 0.888 1.503 0.888 2.891v4.355c0 0.771-0.093 1.49-0.277 2.158-0.166 0.668-0.509 1.208-1.026 1.619-0.499 0.411-1.248 0.617-2.245 0.617h-3.272v10.291h-0.693zM218.405 16.714h3.244c0.961 0 1.682-0.321 2.162-0.964 0.499-0.668 0.749-1.644 0.749-2.929v-3.97c0-1.105-0.24-1.914-0.721-2.428-0.462-0.54-0.998-0.809-1.608-0.809h-3.826v11.1z"></path>
<path d="M228.325 27.698v-22.778h6.737v0.732h-6.044v9.674h4.657v0.732h-4.657v10.907h6.044v0.732h-6.737z"></path>
<path d="M237.963 27.698v-22.778h7.181v22.778h-0.721v-22.007h-5.738v22.007h-0.721z"></path>
<path d="M247.861 27.698l4.131-22.778h0.526l4.103 22.778h-0.665l-1.137-6.090h-5.24l-1.109 6.090h-0.61zM249.663 20.954h5.101l-2.523-13.836-2.578 13.836z"></path>
<path d="M259.351 27.698v-22.778h4.547c0.813 0 1.506 0.283 2.079 0.848 0.592 0.54 0.887 1.503 0.887 2.891v4.355c0 0.771-0.092 1.49-0.277 2.158-0.166 0.668-0.508 1.208-1.025 1.619-0.499 0.411-1.248 0.617-2.246 0.617h-3.271v10.291h-0.693zM260.044 16.714h3.244c0.961 0 1.682-0.321 2.162-0.964 0.499-0.668 0.748-1.644 0.748-2.929v-3.97c0-1.105-0.24-1.914-0.721-2.428-0.462-0.54-0.998-0.809-1.607-0.809h-3.826v11.1z"></path>
<path d="M268.356 27.698l4.13-22.778h0.527l4.103 22.778h-0.666l-1.136-6.090h-5.24l-1.109 6.090h-0.609zM270.157 20.954h5.101l-2.523-13.836-2.579 13.836z"></path>
<path d="M280.927 27.698v-22.046h-2.911v-0.732h6.57v0.732h-2.994v22.046h-0.665z"></path>
<path d="M286.408 27.852c-0.185 0-0.36-0.026-0.526-0.077-0.148-0.026-0.287-0.051-0.416-0.077v-0.694c0.092 0.026 0.203 0.051 0.333 0.077 0.148 0.026 0.314 0.038 0.499 0.038 0.222 0 0.462-0.064 0.721-0.193s0.508-0.36 0.748-0.694c0.166-0.257 0.305-0.565 0.416-0.925 0.129-0.36 0.231-0.784 0.305-1.272l-3.299-19.117h0.721l3.022 17.768h-0.055l3.077-17.768h0.666l-3.188 18.384c-0.296 1.644-0.656 2.814-1.081 3.507s-1.072 1.041-1.941 1.041z"></path>
<path d="M300.584 27.698v-22.778h7.18v22.778h-0.721v-22.007h-5.739v22.007h-0.72z"></path>
<path d="M312.090 27.698v-22.778h4.546c0.813 0 1.506 0.283 2.079 0.848 0.591 0.54 0.887 1.503 0.887 2.891v4.355c0 0.771-0.093 1.49-0.277 2.158-0.166 0.668-0.509 1.208-1.026 1.619-0.499 0.411-1.248 0.617-2.245 0.617h-3.271v10.291h-0.693zM312.783 16.714h3.244c0.961 0 1.682-0.321 2.162-0.964 0.499-0.668 0.749-1.644 0.749-2.929v-3.97c0-1.105-0.24-1.914-0.721-2.428-0.462-0.54-0.998-0.809-1.608-0.809h-3.826v11.1z"></path>
<path d="M326.168 28.161c-0.721 0-1.368-0.116-1.94-0.347-0.554-0.231-0.998-0.707-1.331-1.426s-0.499-1.824-0.499-3.315v-13.451c0-1.49 0.166-2.582 0.499-3.276 0.332-0.719 0.785-1.182 1.358-1.388 0.591-0.231 1.248-0.347 1.969-0.347 0.739 0 1.386 0.116 1.94 0.347 0.573 0.231 1.026 0.707 1.358 1.426 0.333 0.694 0.499 1.773 0.499 3.237v13.451c0 1.516-0.166 2.634-0.499 3.353s-0.786 1.182-1.358 1.387c-0.573 0.231-1.238 0.347-1.996 0.347zM326.195 27.467c0.629 0 1.174-0.090 1.636-0.27 0.481-0.206 0.85-0.617 1.109-1.233 0.278-0.642 0.416-1.619 0.416-2.929v-13.297c0-1.31-0.138-2.274-0.416-2.891-0.258-0.642-0.628-1.053-1.109-1.233-0.481-0.205-1.025-0.308-1.636-0.308-0.628 0-1.183 0.103-1.663 0.308-0.462 0.18-0.832 0.591-1.109 1.233-0.258 0.617-0.388 1.58-0.388 2.891v13.297c0 1.31 0.129 2.287 0.388 2.929 0.278 0.617 0.647 1.028 1.109 1.233 0.481 0.18 1.035 0.27 1.663 0.27z"></path>
<path d="M334.046 27.698v-22.778h0.666v10.676h1.025l4.63-10.676h0.804l-4.741 10.984 4.907 11.794h-0.86l-4.657-11.331h-1.109v11.331h-0.666z"></path>
<path d="M346.906 28.161c-0.721 0-1.368-0.116-1.941-0.347-0.554-0.231-0.998-0.707-1.331-1.426s-0.499-1.824-0.499-3.315v-13.451c0-1.49 0.166-2.582 0.499-3.276 0.333-0.719 0.785-1.182 1.359-1.388 0.591-0.231 1.247-0.347 1.968-0.347 0.74 0 1.386 0.116 1.941 0.347 0.573 0.231 1.025 0.707 1.358 1.426 0.333 0.694 0.499 1.773 0.499 3.237v13.451c0 1.516-0.166 2.634-0.499 3.353s-0.786 1.182-1.358 1.387c-0.574 0.231-1.239 0.347-1.996 0.347zM346.934 27.467c0.629 0 1.174-0.090 1.636-0.27 0.48-0.206 0.85-0.617 1.109-1.233 0.277-0.642 0.416-1.619 0.416-2.929v-13.297c0-1.31-0.139-2.274-0.416-2.891-0.258-0.642-0.629-1.053-1.109-1.233-0.481-0.205-1.026-0.308-1.636-0.308-0.629 0-1.183 0.103-1.663 0.308-0.462 0.18-0.832 0.591-1.109 1.233-0.259 0.617-0.388 1.58-0.388 2.891v13.297c0 1.31 0.129 2.287 0.388 2.929 0.277 0.617 0.647 1.028 1.109 1.233 0.481 0.18 1.035 0.27 1.663 0.27z"></path>
<path d="M354.784 27.698v-22.778h0.665v10.406h6.349v-10.406h0.638v22.778h-0.638v-11.601h-6.349v11.601h-0.665z"></path>
<path d="M370.216 28.161c-0.721 0-1.368-0.116-1.94-0.347-0.555-0.231-0.998-0.707-1.331-1.426s-0.499-1.824-0.499-3.315v-13.451c0-1.49 0.166-2.582 0.499-3.276 0.333-0.719 0.785-1.182 1.358-1.388 0.591-0.231 1.248-0.347 1.968-0.347 0.739 0 1.386 0.116 1.941 0.347 0.573 0.231 1.026 0.707 1.358 1.426 0.333 0.694 0.499 1.773 0.499 3.237v3.469h-0.665v-3.392c0-1.31-0.139-2.274-0.416-2.891-0.258-0.642-0.628-1.053-1.109-1.233-0.481-0.206-1.025-0.308-1.635-0.308s-1.155 0.103-1.635 0.308c-0.481 0.18-0.86 0.591-1.137 1.233-0.259 0.617-0.388 1.58-0.388 2.891v13.335c0 1.31 0.129 2.287 0.388 2.929 0.277 0.617 0.656 1.028 1.137 1.233 0.48 0.18 1.025 0.27 1.635 0.27 0.628 0 1.174-0.090 1.635-0.27 0.481-0.206 0.85-0.617 1.109-1.233 0.278-0.642 0.416-1.619 0.416-2.929v-2.698h0.665v2.736c0 1.516-0.166 2.634-0.499 3.353s-0.785 1.182-1.358 1.387c-0.573 0.231-1.239 0.347-1.996 0.347z"></path>
<path d="M377.213 27.852c-0.185 0-0.36-0.026-0.527-0.077-0.148-0.026-0.287-0.051-0.416-0.077v-0.694c0.092 0.026 0.203 0.051 0.332 0.077 0.148 0.026 0.314 0.038 0.499 0.038 0.222 0 0.462-0.064 0.721-0.193s0.508-0.36 0.748-0.694c0.166-0.257 0.305-0.565 0.416-0.925 0.129-0.36 0.231-0.784 0.305-1.272l-3.299-19.117h0.721l3.022 17.768h-0.055l3.077-17.768h0.665l-3.188 18.384c-0.296 1.644-0.656 2.814-1.081 3.507s-1.072 1.041-1.941 1.041z"></path>
<path d="M384.257 27.698v-0.694c0.37 0 0.666-0.206 0.887-0.617 0.222-0.437 0.36-1.182 0.416-2.235l0.915-19.232h7.097v22.778h-0.693v-22.007h-5.738l-0.943 18.808c-0.018 0.257-0.055 0.565-0.111 0.925-0.037 0.334-0.12 0.668-0.249 1.002-0.111 0.308-0.277 0.591-0.499 0.848-0.203 0.231-0.471 0.373-0.804 0.424h-0.277z"></path>
<path d="M397.1 27.698v-22.701h0.665v5.935h2.966c0.924 0 1.626 0.206 2.107 0.617 0.499 0.385 0.841 0.951 1.025 1.696 0.204 0.745 0.305 1.657 0.305 2.736v6.282c0 0.899-0.056 1.696-0.166 2.39-0.111 0.668-0.296 1.233-0.554 1.696-0.24 0.437-0.582 0.771-1.026 1.002-0.425 0.231-0.961 0.347-1.608 0.347h-3.714zM397.765 27.004h2.994c0.795 0 1.386-0.206 1.775-0.617 0.388-0.437 0.646-1.015 0.776-1.734 0.129-0.745 0.194-1.567 0.194-2.467v-5.935c0-0.771-0.055-1.503-0.166-2.197-0.11-0.719-0.369-1.298-0.776-1.734-0.388-0.462-1.007-0.694-1.857-0.694h-2.939v15.378z"></path>
<path d="M408.767 27.698v-22.046h-2.911v-0.732h6.57v0.732h-2.994v22.046h-0.666z"></path>
<path d="M414.249 27.852c-0.185 0-0.36-0.026-0.527-0.077-0.148-0.026-0.287-0.051-0.416-0.077v-0.694c0.093 0.026 0.203 0.051 0.333 0.077 0.148 0.026 0.314 0.038 0.499 0.038 0.222 0 0.462-0.064 0.721-0.193s0.508-0.36 0.748-0.694c0.166-0.257 0.305-0.565 0.416-0.925 0.129-0.36 0.231-0.784 0.305-1.272l-3.299-19.117h0.721l3.022 17.768h-0.056l3.078-17.768h0.665l-3.188 18.384c-0.296 1.644-0.656 2.814-1.082 3.507s-1.072 1.041-1.94 1.041z"></path>
<path d="M422.901 27.698v-22.778h0.666v20.735l6.404-20.735h0.666v22.778h-0.666v-20.311l-6.321 20.311h-0.748zM426.754 3.417c-0.592 0-1.063-0.167-1.414-0.501-0.351-0.36-0.609-0.784-0.776-1.272-0.148-0.488-0.231-0.938-0.25-1.349h0.527c0.093 0.822 0.305 1.439 0.638 1.85 0.351 0.411 0.776 0.617 1.276 0.617 0.536 0 0.97-0.193 1.303-0.578 0.351-0.411 0.564-1.041 0.638-1.889h0.527c-0.037 0.411-0.139 0.861-0.305 1.349s-0.425 0.912-0.776 1.272c-0.332 0.334-0.795 0.501-1.386 0.501z"></path>
<path d="M436.030 27.698v-22.046h-2.911v-0.732h6.57v0.732h-2.994v22.046h-0.665z"></path>
<path d="M442.177 27.698v-22.778h6.737v0.732h-6.044v9.674h4.657v0.732h-4.657v10.907h6.044v0.732h-6.737z"></path>
<path d="M455.28 28.161c-0.721 0-1.368-0.116-1.94-0.347-0.555-0.231-0.998-0.707-1.331-1.426s-0.499-1.824-0.499-3.315v-13.451c0-1.49 0.166-2.582 0.499-3.276 0.333-0.719 0.786-1.182 1.359-1.388 0.591-0.231 1.248-0.347 1.968-0.347 0.739 0 1.386 0.116 1.941 0.347 0.573 0.231 1.025 0.707 1.358 1.426 0.333 0.694 0.499 1.773 0.499 3.237v3.469h-0.666v-3.392c0-1.31-0.139-2.274-0.416-2.891-0.259-0.642-0.629-1.053-1.109-1.233-0.481-0.206-1.026-0.308-1.636-0.308s-1.154 0.103-1.635 0.308c-0.481 0.18-0.859 0.591-1.137 1.233-0.258 0.617-0.388 1.58-0.388 2.891v13.335c0 1.31 0.129 2.287 0.388 2.929 0.278 0.617 0.656 1.028 1.137 1.233 0.481 0.18 1.026 0.27 1.635 0.27 0.629 0 1.174-0.090 1.636-0.27 0.481-0.206 0.85-0.617 1.109-1.233 0.277-0.642 0.416-1.619 0.416-2.929v-2.698h0.666v2.736c0 1.516-0.166 2.634-0.499 3.353s-0.786 1.182-1.358 1.387c-0.573 0.231-1.238 0.347-1.996 0.347z"></path>
<path d="M462.94 27.698v-22.701h0.668v5.935h2.968c0.922 0 1.627 0.206 2.106 0.617 0.498 0.385 0.838 0.951 1.023 1.696 0.207 0.745 0.309 1.657 0.309 2.736v6.282c0 0.899-0.056 1.696-0.166 2.39-0.115 0.668-0.3 1.233-0.558 1.696-0.239 0.437-0.58 0.771-1.023 1.002-0.428 0.231-0.963 0.347-1.608 0.347h-3.719zM463.608 27.004h2.995c0.793 0 1.382-0.206 1.774-0.617 0.387-0.437 0.645-1.015 0.774-1.734 0.129-0.745 0.194-1.567 0.194-2.467v-5.935c0-0.771-0.056-1.503-0.166-2.197-0.111-0.719-0.369-1.298-0.774-1.734-0.391-0.462-1.009-0.694-1.857-0.694h-2.94v15.378z"></path>
<path d="M481.879 28.007c-1 0-1.793-0.257-2.387-0.771-0.571-0.514-0.986-1.208-1.244-2.081-0.24-0.874-0.359-1.824-0.359-2.852v-2.043h0.719v2.351c0 1.413 0.286 2.531 0.857 3.353 0.576 0.796 1.378 1.22 2.415 1.272 0.977 0 1.765-0.398 2.355-1.195 0.613-0.822 0.917-1.953 0.917-3.392v-2.043c0-1.362-0.304-2.428-0.917-3.199-0.608-0.771-1.415-1.182-2.41-1.233h-1.829v-0.886h1.829c0.479 0 0.94-0.141 1.387-0.424 0.442-0.283 0.811-0.694 1.106-1.233 0.221-0.411 0.392-0.848 0.502-1.31 0.111-0.488 0.166-1.002 0.166-1.542v-1.156c0-1.131-0.249-2.094-0.751-2.891-0.498-0.796-1.281-1.195-2.355-1.195s-1.857 0.398-2.355 1.195c-0.502 0.797-0.751 1.773-0.751 2.929v1.657h-0.746v-1.349c0-1.619 0.304-2.891 0.912-3.816 0.613-0.925 1.59-1.388 2.94-1.388s2.327 0.463 2.94 1.388c0.608 0.925 0.913 2.197 0.913 3.816v0.732c0 1.362-0.249 2.454-0.747 3.276-0.483 0.822-1.073 1.413-1.774 1.773 0.903 0.283 1.571 0.886 1.995 1.811 0.442 0.925 0.664 2.043 0.664 3.353v1.388c0 1.028-0.12 1.979-0.36 2.852s-0.654 1.567-1.248 2.081c-0.572 0.514-1.369 0.771-2.382 0.771z"></path>
<path d="M493.174 27.698v-0.694c0.369 0 0.665-0.206 0.886-0.617 0.217-0.437 0.359-1.182 0.418-2.235l0.911-19.232h7.094v22.778h-0.689v-22.007h-5.735l-0.945 18.808c-0.020 0.257-0.054 0.565-0.113 0.925-0.034 0.334-0.118 0.668-0.246 1.002-0.113 0.308-0.276 0.591-0.502 0.848-0.202 0.231-0.473 0.373-0.802 0.424h-0.276z"></path>
<path d="M506.014 27.698v-22.778h0.665v22.778h-0.665z"></path>
<path d="M510.996 27.698v-22.778h0.665v10.676h1.029l4.628-10.676h0.802l-4.741 10.984 4.908 11.794h-0.857l-4.657-11.331h-1.113v11.331h-0.665z"></path>
<path d="M518.784 27.698l4.13-22.778h0.527l4.101 22.778h-0.66l-1.142-6.090h-5.238l-1.108 6.090h-0.61zM520.586 20.954h5.1l-2.526-13.836-2.575 13.836z"></path>
<path d="M530.274 27.698v-22.778h4.544c0.812 0 1.506 0.283 2.082 0.848 0.591 0.54 0.886 1.503 0.886 2.891v4.355c0 0.771-0.094 1.49-0.276 2.158-0.172 0.668-0.512 1.208-1.029 1.619-0.497 0.411-1.246 0.617-2.245 0.617h-3.269v10.291h-0.694zM530.969 16.714h3.244c0.96 0 1.679-0.321 2.161-0.964 0.497-0.668 0.743-1.644 0.743-2.929v-3.97c0-1.105-0.236-1.914-0.719-2.428-0.458-0.54-0.999-0.809-1.605-0.809h-3.825v11.1z"></path>
<path d="M540.884 27.698v-22.778h6.74v0.732h-6.046v9.674h4.662v0.732h-4.662v10.907h6.046v0.732h-6.74z"></path>
<path d="M550.523 27.698v-22.778h0.635l4.495 21.314 4.603-21.314h0.527v22.778h-0.635v-19.464l-4.19 19.464h-0.581l-4.19-19.464v19.464h-0.665z"></path>
</symbol>
<symbol id="icon-phone" viewBox="0 0 33 32">
<path stroke-linejoin="round" stroke-linecap="round" stroke-miterlimit="4" stroke-width="2" d="M22.050 19.361c-3.193 3.361-11.339-4.711-8.133-8.084 1.957-2.060-0.253-4.413-1.477-6.145-2.297-3.247-7.339 1.236-7.187 4.088 0.484 8.995 10.213 19.653 19.635 18.723 2.947-0.291 6.333-5.613 2.952-7.559-1.689-0.973-4.011-2.893-5.789-1.023z"></path>
</symbol>
<symbol id="icon-chevrons" viewBox="0 0 24 24">
<path d="M6.9375 9L12.9375 15L18.9375 9"    stroke-width="1.5" stroke-linecap="round" stroke-linejoin="round"/>
</symbol>

</defs>
</svg>
